<?xml version="1.0" encoding="UTF-8" standalone="no"?>
<!-- Generator: Adobe Illustrator 14.0.0, SVG Export Plug-In . SVG Version: 6.00 Build 43363)  -->

<svg
   xmlns:dc="http://purl.org/dc/elements/1.1/"
   xmlns:cc="http://creativecommons.org/ns#"
   xmlns:rdf="http://www.w3.org/1999/02/22-rdf-syntax-ns#"
   xmlns:svg="http://www.w3.org/2000/svg"
   xmlns="http://www.w3.org/2000/svg"
   xmlns:sodipodi="http://sodipodi.sourceforge.net/DTD/sodipodi-0.dtd"
   xmlns:inkscape="http://www.inkscape.org/namespaces/inkscape"
   version="1.1"
   id="Ebene_1"
   x="0px"
   y="0px"
   width="335"
   height="211"
   viewBox="0 0 335 211"
   enable-background="new 0 0 335 211"
   xml:space="preserve"
   inkscape:version="0.48.0 r9654"
   sodipodi:docname="bridgelogo.svg"
   style="display:inline"><metadata
   id="metadata3127"><rdf:RDF><cc:Work
       rdf:about=""><dc:format>image/svg+xml</dc:format><dc:type
         rdf:resource="http://purl.org/dc/dcmitype/StillImage" /><dc:title></dc:title></cc:Work></rdf:RDF></metadata><defs
   id="defs3125">
	
	
	
	
	
	
	
	
	
	
	
	
	
	
	
	
	
	
	
	
	
	
<linearGradient
   id="linearGradient4003"
   spreadMethod="pad"
   gradientTransform="matrix(0,-41.08427,41.08427,0,350.18896,-285.93555)"
   gradientUnits="userSpaceOnUse"
   y2="0"
   x2="1"
   y1="0"
   x1="0"><stop
     id="stop4005"
     offset="0"
     style="stop-opacity:1;stop-color:#80c0d5" /><stop
     id="stop4007"
     offset="0.8"
     style="stop-opacity:1;stop-color:#1a8eb4" /><stop
     id="stop4009"
     offset="1"
     style="stop-opacity:1;stop-color:#1a8eb4" /></linearGradient><clipPath
   id="clipPath3995"
   clipPathUnits="userSpaceOnUse"><path
     id="path3997"
     d="m 370.0542,-305.79932 c 0,10.97315 -8.89258,19.86377 -19.86524,19.86377 -10.9707,0 -19.86523,-8.89062 -19.86523,-19.86377 0,-10.97168 8.89453,-19.86621 19.86523,-19.86621 10.97266,0 19.86524,8.89453 19.86524,19.86621 z" /></clipPath><linearGradient
   id="linearGradient3979"
   spreadMethod="pad"
   gradientTransform="matrix(0,71.9993,-71.9993,0,350.18896,-341.79834)"
   gradientUnits="userSpaceOnUse"
   y2="0"
   x2="1"
   y1="0"
   x1="0"><stop
     id="stop3981"
     offset="0"
     style="stop-opacity:1;stop-color:#73bad1" /><stop
     id="stop3983"
     offset="0.78651"
     style="stop-opacity:1;stop-color:#1a8eb4" /><stop
     id="stop3985"
     offset="1"
     style="stop-opacity:1;stop-color:#1a8eb4" /></linearGradient><clipPath
   id="clipPath3971"
   clipPathUnits="userSpaceOnUse"><path
     id="path3973"
     d="m 350.18896,-269.79883 c 0,0 -36,-36.00049 -36,-36.00049 0,0 36,-35.99951 36,-35.99951 0,0 36,35.99951 36,35.99951 0,0 -36,36.00049 -36,36.00049 z" /></clipPath><inkscape:perspective
   sodipodi:type="inkscape:persp3d"
   inkscape:vp_x="0 : 0.5 : 1"
   inkscape:vp_y="0 : 1000 : 0"
   inkscape:vp_z="1 : 0.5 : 1"
   inkscape:persp3d-origin="0.5 : 0.33333333 : 1"
   id="perspective4605" /><inkscape:perspective
   sodipodi:type="inkscape:persp3d"
   inkscape:vp_x="0 : 0.5 : 1"
   inkscape:vp_y="0 : 1000 : 0"
   inkscape:vp_z="1 : 0.5 : 1"
   inkscape:persp3d-origin="0.5 : 0.33333333 : 1"
   id="perspective2969" /><inkscape:perspective
   sodipodi:type="inkscape:persp3d"
   inkscape:vp_x="0 : 0.5 : 1"
   inkscape:vp_y="0 : 1000 : 0"
   inkscape:vp_z="1 : 0.5 : 1"
   inkscape:persp3d-origin="0.5 : 0.33333333 : 1"
   id="perspective2918" /><clipPath
   clipPathUnits="userSpaceOnUse"
   id="clipPath2928"><path
     d="M 0,891.035 0,0 l 2254.52,0 0,891.035 -2254.52,0 z"
     id="path2930" /></clipPath><inkscape:perspective
   sodipodi:type="inkscape:persp3d"
   inkscape:vp_x="0 : 0.5 : 1"
   inkscape:vp_y="0 : 1000 : 0"
   inkscape:vp_z="1 : 0.5 : 1"
   inkscape:persp3d-origin="0.5 : 0.33333333 : 1"
   id="perspective4113" /><inkscape:perspective
   sodipodi:type="inkscape:persp3d"
   inkscape:vp_x="0 : 0.5 : 1"
   inkscape:vp_y="0 : 1000 : 0"
   inkscape:vp_z="1 : 0.5 : 1"
   inkscape:persp3d-origin="0.5 : 0.33333333 : 1"
   id="perspective2996-38" /><inkscape:perspective
   sodipodi:type="inkscape:persp3d"
   inkscape:vp_x="0 : 0.5 : 1"
   inkscape:vp_y="0 : 1000 : 0"
   inkscape:vp_z="1 : 0.5 : 1"
   inkscape:persp3d-origin="0.5 : 0.33333333 : 1"
   id="perspective2996-25" /><inkscape:perspective
   sodipodi:type="inkscape:persp3d"
   inkscape:vp_x="0 : 0.5 : 1"
   inkscape:vp_y="0 : 1000 : 0"
   inkscape:vp_z="1 : 0.5 : 1"
   inkscape:persp3d-origin="0.5 : 0.33333333 : 1"
   id="perspective2996-1" /><inkscape:perspective
   sodipodi:type="inkscape:persp3d"
   inkscape:vp_x="0 : 0.5 : 1"
   inkscape:vp_y="0 : 1000 : 0"
   inkscape:vp_z="1 : 0.5 : 1"
   inkscape:persp3d-origin="0.5 : 0.33333333 : 1"
   id="perspective2996-8" /><inkscape:perspective
   sodipodi:type="inkscape:persp3d"
   inkscape:vp_x="0 : 0.5 : 1"
   inkscape:vp_y="0 : 1000 : 0"
   inkscape:vp_z="1 : 0.5 : 1"
   inkscape:persp3d-origin="0.5 : 0.33333333 : 1"
   id="perspective2996-76" /><inkscape:perspective
   sodipodi:type="inkscape:persp3d"
   inkscape:vp_x="0 : 0.5 : 1"
   inkscape:vp_y="0 : 1000 : 0"
   inkscape:vp_z="1 : 0.5 : 1"
   inkscape:persp3d-origin="0.5 : 0.33333333 : 1"
   id="perspective2996-4" /><inkscape:perspective
   sodipodi:type="inkscape:persp3d"
   inkscape:vp_x="0 : 0.5 : 1"
   inkscape:vp_y="0 : 1000 : 0"
   inkscape:vp_z="1 : 0.5 : 1"
   inkscape:persp3d-origin="0.5 : 0.33333333 : 1"
   id="perspective2996-91" /><inkscape:perspective
   sodipodi:type="inkscape:persp3d"
   inkscape:vp_x="0 : 0.5 : 1"
   inkscape:vp_y="0 : 1000 : 0"
   inkscape:vp_z="1 : 0.5 : 1"
   inkscape:persp3d-origin="0.5 : 0.33333333 : 1"
   id="perspective2996-7" /><inkscape:perspective
   sodipodi:type="inkscape:persp3d"
   inkscape:vp_x="0 : 0.5 : 1"
   inkscape:vp_y="0 : 1000 : 0"
   inkscape:vp_z="1 : 0.5 : 1"
   inkscape:persp3d-origin="0.5 : 0.33333333 : 1"
   id="perspective2996-2" /><inkscape:perspective
   sodipodi:type="inkscape:persp3d"
   inkscape:vp_x="0 : 0.5 : 1"
   inkscape:vp_y="0 : 1000 : 0"
   inkscape:vp_z="1 : 0.5 : 1"
   inkscape:persp3d-origin="0.5 : 0.33333333 : 1"
   id="perspective2996-5" /><inkscape:perspective
   sodipodi:type="inkscape:persp3d"
   inkscape:vp_x="0 : 0.5 : 1"
   inkscape:vp_y="0 : 1000 : 0"
   inkscape:vp_z="1 : 0.5 : 1"
   inkscape:persp3d-origin="0.5 : 0.33333333 : 1"
   id="perspective2996-9" /><inkscape:perspective
   sodipodi:type="inkscape:persp3d"
   inkscape:vp_x="0 : 0.5 : 1"
   inkscape:vp_y="0 : 1000 : 0"
   inkscape:vp_z="1 : 0.5 : 1"
   inkscape:persp3d-origin="0.5 : 0.33333333 : 1"
   id="perspective2996-3" /><inkscape:perspective
   sodipodi:type="inkscape:persp3d"
   inkscape:vp_x="0 : 0.5 : 1"
   inkscape:vp_y="0 : 1000 : 0"
   inkscape:vp_z="1 : 0.5 : 1"
   inkscape:persp3d-origin="0.5 : 0.33333333 : 1"
   id="perspective2996" /><inkscape:perspective
   sodipodi:type="inkscape:persp3d"
   inkscape:vp_x="0 : 0.5 : 1"
   inkscape:vp_y="0 : 1000 : 0"
   inkscape:vp_z="1 : 0.5 : 1"
   inkscape:persp3d-origin="0.5 : 0.33333333 : 1"
   id="perspective2963" /><inkscape:perspective
   sodipodi:type="inkscape:persp3d"
   inkscape:vp_x="0 : 0.5 : 1"
   inkscape:vp_y="0 : 1000 : 0"
   inkscape:vp_z="1 : 0.5 : 1"
   inkscape:persp3d-origin="0.5 : 0.33333333 : 1"
   id="perspective2905" /><inkscape:perspective
   id="perspective10"
   inkscape:persp3d-origin="372.04724 : 350.78739 : 1"
   inkscape:vp_z="744.09448 : 526.18109 : 1"
   inkscape:vp_y="0 : 1000 : 0"
   inkscape:vp_x="0 : 526.18109 : 1"
   sodipodi:type="inkscape:persp3d" /><linearGradient
   id="linearGradient4129"><stop
     id="stop4131"
     offset="0"
     style="stop-color:#ffffff;stop-opacity:0;" /><stop
     id="stop4133"
     offset="1"
     style="stop-color:#ffffff;stop-opacity:1;" /></linearGradient></defs><sodipodi:namedview
   pagecolor="#ffffff"
   bordercolor="#666666"
   borderopacity="1"
   objecttolerance="10"
   gridtolerance="10"
   guidetolerance="10"
   inkscape:pageopacity="0"
   inkscape:pageshadow="2"
   inkscape:window-width="1563"
   inkscape:window-height="1156"
   id="namedview3123"
   showgrid="false"
   inkscape:zoom="1.6701291"
   inkscape:cx="214.02681"
   inkscape:cy="57.598995"
   inkscape:window-x="2110"
   inkscape:window-y="0"
   inkscape:window-maximized="0"
   inkscape:current-layer="layer1"><inkscape:grid
     type="xygrid"
     id="grid4201" /></sodipodi:namedview>

<g
   inkscape:groupmode="layer"
   id="layer1"
   inkscape:label="Bridge"
   style="display:inline"><g
     id="g3841"
     style="fill:#784421;stroke:none"
     transform="matrix(0.43913688,0,0,0.43913688,28.68876,229.67314)"><path
       inkscape:connector-curvature="0"
       id="path3790"
       d="m 284.22675,-142.03352 -0.59375,0.0625 c 0,0 2.47386,17.52418 5.125,35.3125 1.32557,8.89416 2.68969,17.853552 3.8125,24.718749 0.56141,3.432598 1.06566,6.350159 1.46875,8.46875 0.20155,1.059296 0.38164,1.928555 0.53125,2.5625 0.0748,0.316973 0.1255,0.578202 0.1875,0.78125 0.062,0.203048 0.13292,0.340011 0.21875,0.46875 l 0.5,-0.34375 c 3.1e-4,4.69e-4 -0.0692,-0.129817 -0.125,-0.3125 -0.0558,-0.182683 -0.11449,-0.409401 -0.1875,-0.71875 -0.14601,-0.618699 -0.33062,-1.476751 -0.53125,-2.53125 -0.40127,-2.108999 -0.90779,-5.038863 -1.46875,-8.46875 -1.12192,-6.859773 -2.48714,-15.794784 -3.8125,-24.687499 -2.65071,-17.78543 -5.125,-35.3125 -5.125,-35.3125 z"
       style="font-size:medium;font-style:normal;font-variant:normal;font-weight:normal;font-stretch:normal;text-indent:0;text-align:start;text-decoration:none;line-height:normal;letter-spacing:normal;word-spacing:normal;text-transform:none;direction:ltr;block-progression:tb;writing-mode:lr-tb;text-anchor:start;baseline-shift:baseline;color:#000000;fill:#784421;fill-opacity:1;stroke:none;stroke-width:0.60000002;marker:none;visibility:visible;display:inline;overflow:visible;enable-background:accumulate;font-family:Sans;-inkscape-font-specification:Sans" /><path
       inkscape:connector-curvature="0"
       id="path3792"
       d="m 272.22675,-139.37727 -0.40625,0.0625 c 0,0 2.81975,16.15188 5.71875,32.46875 1.4495,8.158435 2.91542,16.344679 4.0625,22.593749 0.57354,3.124535 1.06781,5.756845 1.4375,7.65625 0.18485,0.949702 0.35061,1.730049 0.46875,2.28125 0.0591,0.275601 0.0841,0.490128 0.125,0.65625 0.0409,0.166122 0.0858,0.258751 0.125,0.34375 l 0.34375,-0.15625 c -6.6e-4,-0.0014 -0.0233,-0.121893 -0.0625,-0.28125 -0.0392,-0.159357 -0.0977,-0.382924 -0.15625,-0.65625 -0.11717,-0.546652 -0.25291,-1.301639 -0.4375,-2.25 -0.36917,-1.896722 -0.8641,-4.532447 -1.4375,-7.65625 -1.14681,-6.247606 -2.64432,-14.435697 -4.09375,-22.593749 -2.89887,-16.31611 -5.6875,-32.46875 -5.6875,-32.46875 z"
       style="font-size:medium;font-style:normal;font-variant:normal;font-weight:normal;font-stretch:normal;text-indent:0;text-align:start;text-decoration:none;line-height:normal;letter-spacing:normal;word-spacing:normal;text-transform:none;direction:ltr;block-progression:tb;writing-mode:lr-tb;text-anchor:start;baseline-shift:baseline;color:#000000;fill:#784421;fill-opacity:1;stroke:none;stroke-width:0.40000001;marker:none;visibility:visible;display:inline;overflow:visible;enable-background:accumulate;font-family:Sans;-inkscape-font-specification:Sans" /><path
       sodipodi:nodetypes="ccssssccssssc"
       inkscape:connector-curvature="0"
       id="path3796"
       d="m 153.47139,-243.3137 -1.02589,0.24893 c 0,0 18.44888,64.11589 42.59375,109.0625 6.03622,11.23665 12.43988,21.26327 19,28.8125 6.56012,7.549224 13.27829,12.637546 20.03125,13.874999 6.75296,1.237453 13.47961,-1.443558 19.875,-9.187499 6.39539,-7.74394 12.52255,-20.55757 18.1875,-39.78125 l -0.5625,-0.15625 c -5.6523,19.18077 -11.75497,31.92495 -18.0625,39.5625 -6.30753,7.637551 -12.77696,10.166361 -19.3125,8.968749 -6.53554,-1.197612 -13.20489,-6.160253 -19.71875,-13.656249 -6.51386,-7.496 -12.8831,-17.50642 -18.90625,-28.71875 -24.09261,-44.84931 -42.09911,-109.03018 -42.09911,-109.03018 z"
       style="font-size:medium;font-style:normal;font-variant:normal;font-weight:normal;font-stretch:normal;text-indent:0;text-align:start;text-decoration:none;line-height:normal;letter-spacing:normal;word-spacing:normal;text-transform:none;direction:ltr;block-progression:tb;writing-mode:lr-tb;text-anchor:start;baseline-shift:baseline;color:#000000;fill:#784421;fill-opacity:1;stroke:none;stroke-width:0.60000002;marker:none;visibility:visible;display:inline;overflow:visible;enable-background:accumulate;font-family:Sans;-inkscape-font-specification:Sans" /><path
       sodipodi:nodetypes="ccssssccssssc"
       inkscape:connector-curvature="0"
       id="path3794"
       d="m 178.47675,-240.25227 -0.72652,0.43735 c 0,0 15.90916,63.04619 37.13277,107.2814 5.3059,11.0588 10.95414,20.91487 16.78125,28.3125 5.82711,7.397627 11.85409,12.365182 17.96875,13.499999 6.11466,1.134817 12.26014,-1.652632 18.125,-9.437499 5.86486,-7.78487 11.50343,-20.59452 16.84375,-39.75 l -0.65625,-0.1875 c -5.32759,19.10982 -10.97728,31.86868 -16.75,39.53125 -5.77272,7.662574 -11.60295,10.239081 -17.4375,9.156249 -5.83455,-1.082832 -11.75557,-5.91766 -17.53125,-13.249999 -5.77568,-7.33234 -11.39507,-17.15679 -16.6875,-28.1875 -21.16971,-44.12286 -37.0625,-107.40625 -37.0625,-107.40625 z"
       style="font-size:medium;font-style:normal;font-variant:normal;font-weight:normal;font-stretch:normal;text-indent:0;text-align:start;text-decoration:none;line-height:normal;letter-spacing:normal;word-spacing:normal;text-transform:none;direction:ltr;block-progression:tb;writing-mode:lr-tb;text-anchor:start;baseline-shift:baseline;color:#000000;fill:#784421;fill-opacity:1;stroke:none;stroke-width:0.69999999;marker:none;visibility:visible;display:inline;overflow:visible;enable-background:accumulate;font-family:Sans;-inkscape-font-specification:Sans" /><path
       inkscape:connector-curvature="0"
       id="path3798"
       d="m 176.03925,-242.25227 c 0,0 -10.52194,21.06524 -26.1875,46.71875 -15.66556,25.65351 -36.48597,55.88986 -56.999998,74.09375 l 0.65625,0.75 c 20.673348,-18.34527 41.498698,-48.62092 57.187498,-74.3125 15.6888,-25.69158 26.21875,-46.8125 26.21875,-46.8125 l -0.875,-0.4375 z"
       style="font-size:medium;font-style:normal;font-variant:normal;font-weight:normal;font-stretch:normal;text-indent:0;text-align:start;text-decoration:none;line-height:normal;letter-spacing:normal;word-spacing:normal;text-transform:none;direction:ltr;block-progression:tb;writing-mode:lr-tb;text-anchor:start;baseline-shift:baseline;color:#000000;fill:#784421;fill-opacity:1;stroke:none;stroke-width:1px;marker:none;visibility:visible;display:inline;overflow:visible;enable-background:accumulate;font-family:Sans;-inkscape-font-specification:Sans" /><path
       inkscape:connector-curvature="0"
       id="path3800"
       d="m 151.4455,-241.09602 c -37.99856,74.14352 -86.156248,115.8125 -86.156248,115.8125 l 0.5,0.625 c 0,0 48.306758,-41.81427 86.374998,-116.09375 l -0.71875,-0.34375 z"
       style="font-size:medium;font-style:normal;font-variant:normal;font-weight:normal;font-stretch:normal;text-indent:0;text-align:start;text-decoration:none;line-height:normal;letter-spacing:normal;word-spacing:normal;text-transform:none;direction:ltr;block-progression:tb;writing-mode:lr-tb;text-anchor:start;baseline-shift:baseline;color:#000000;fill:#784421;fill-opacity:1;stroke:none;stroke-width:0.80000001;marker:none;visibility:visible;display:inline;overflow:visible;enable-background:accumulate;font-family:Sans;-inkscape-font-specification:Sans" /><path
       sodipodi:nodetypes="cccccccc"
       inkscape:connector-curvature="0"
       id="path3217"
       d="M 298.72457,-64.96473 C 251.00719,-87.789649 225.64638,-89.908712 153.62155,-102.32998 84.14399,-112.89439 8.9153977,-124.29325 -56.082276,-116.38306 l 23.333334,-25.18518 c 0,0 89.859029,8.25435 156.882732,24.44854 67.79484,13.50115 116.05415,17.827069 174.39994,48.047648 0,0 0.35978,3.996383 0.19081,4.107322 z"
       style="fill:#784421;stroke:none;display:inline" /><path
       inkscape:connector-curvature="0"
       id="path3219"
       d="m 177.60175,-245.47102 -1.46875,0.0313 c -0.0925,2.39565 -0.32978,3.42448 -1.5625,5.25 -3.11267,2.1824 -16.29346,2.52605 -20.03125,0.71875 -0.70604,-1.67896 -0.50002,-3.23826 -0.75,-5.03125 l -1.4375,0 -0.21875,3.375 c -1.19833,0.54822 -2.27962,1.01021 -1,2.6875 l -0.125,25.21875 -0.71875,0.34375 0.0937,14.53125 -0.5625,0.5 0.0937,13.375 -0.75,0.5 0,30.28125 c -0.72379,0.6479 -0.87053,1.19441 0.21875,1.75 l -0.46875,38.875 -0.75,0.25 0.25,12.46875 0.15625,1.156249 0.46875,40.125 -1.375,1 0.0313,6.15625 -1.40625,1.09375 -0.53125,6.625 36.71875,0.3125 -0.4375,-7.6875 -1.59375,0.0625 0,-6.3125 -0.9375,-0.78125 -0.15625,-39.5 3.34375,0.03125 0,-10.187499 -3.125,-0.125 0.375,-43.84375 c 0.68455,-0.0867 0.77388,-0.98252 0,-1.15625 l 0.0313,-30.9375 -0.53125,-0.375 0.0313,-3.75 c 0.36971,-0.67102 0.67809,-0.8127 -0.0937,-1.3125 l -0.15625,-23.875 -0.5,-0.625 -0.0937,-24.1875 c 1.85679,-2.20138 0.54779,-1.87166 -0.78125,-2.8125 -0.27191,-1.54867 -0.3206,-2.61299 -0.25,-4.21875 z m -8.21875,15.40625 c 2.35083,-0.002 4.17343,0.20323 4.71875,1 0.61669,2.97132 0.57095,5.70503 0.53125,8.5 -0.0403,2.83594 0.3279,6.48289 -0.8125,7.75 -2.20016,1.41877 -5.08389,1.4142 -8.6875,1.4375 -3.60361,0.0233 -8.59718,0.31174 -9.5625,-0.34375 -0.86283,-0.67173 -0.60635,-4.35131 -0.65625,-7.8125 -0.0499,-3.46119 -0.3682,-7.22896 1.09375,-9.09375 1.21417,-1.38966 4.47716,-1.14144 8.75,-1.3125 1.60232,-0.0641 3.2145,-0.12377 4.625,-0.125 z m -1.3125,27.5625 c 1.74939,0.005 3.45964,0.20166 4.625,1.0625 0.84014,2.06358 0.72284,4.77796 0.90625,7.1875 0.11316,1.48023 0.0785,2.95372 0.125,4.4375 -0.78299,0.85627 -0.74354,0.99195 0.0313,1.5625 -0.0617,1.30358 0.41479,2.94425 -0.5,3.875 -1.88799,1.5214 -4.85862,1.16363 -8.09375,1.3125 -2.90334,0.13359 -7.70756,0.83472 -8.46875,-0.53125 -1.10636,-0.87256 -1.04167,-5.12634 -0.90625,-8.21875 0.12098,-2.76266 -0.5715,-7.50328 1.375,-9.125 1.85434,-1.87119 5.17889,-1.40545 7.8125,-1.46875 0.96533,-0.0232 2.04412,-0.0966 3.09375,-0.0937 z m -0.75,30.40625 c 2.25011,-0.0366 3.31507,0.18864 4,1.1875 1.76941,1.27474 1.08005,5.27221 1.59375,9.34375 0.019,2.35921 0.11014,5.41662 -0.15625,7.71875 -0.5137,0.53273 -1.19863,0.96185 0,1.4375 0.0951,1.67427 0.46895,3.27978 -0.40625,3.8125 -2.09284,1.06546 -4.87719,0.54614 -7.3125,0.8125 -2.77778,-0.11415 -5.7793,0.28952 -8.5,-0.28125 -0.53273,-0.8752 -0.21599,-2.63151 -0.40625,-3.90625 0.51372,0.0761 1.37528,-0.73492 0.0625,-1.34375 0.0571,-2.34018 0.0679,-4.47232 0.125,-6.8125 0.43759,-4.69939 0.13418,-8.66533 1.65625,-10.625 0.51369,-1.65525 3.91653,-1.13584 6.65625,-1.25 1.04167,-0.0523 1.93746,-0.0816 2.6875,-0.0937 z m -1.75,35.8125 c 2.74437,0.0322 3.91799,0.46315 5,1.625 1.88506,5.4385 1.89265,13.50655 2.1875,20.71875 0.11415,20.122813 0.90238,25.573859 0.34375,54.687499 l -1.15625,0.96875 0,5.9375 c -1.23499,1.124959 -5.38628,0.493009 -8.09375,0.5625 -3.00564,0.07714 -9.03125,-0.1875 -9.03125,-0.1875 l 0.1875,-6.28125 -1.09375,-1.125 0.34375,-42.343749 1.875,-8.5 c -0.13189,-6.78128 -0.88111,-15.72006 1.25,-22.5625 0.71192,-3.5459 2.89158,-3.10328 6.90625,-3.46875 0.46038,-0.01 0.8892,-0.0358 1.28125,-0.0313 z"
       style="fill:#784421;stroke:none;display:inline" /><path
       inkscape:connector-curvature="0"
       id="path4020"
       d="m 271.9455,-142.65852 c -0.11329,-0.034 -0.26547,0.03 -0.46875,0.3125 l -0.0625,1.4375 c -0.0868,0.12858 -1.27492,0.43737 -0.34375,1.0625 l -0.1875,12.15625 -0.3125,0.46875 -0.125,11.375 c -0.40019,0.0358 -0.43752,0.68285 0.0313,0.71875 l 0.0313,1.6875 c -0.153,0.0437 -0.3838,0.0325 -0.4375,0.25 l -0.15625,14.906249 c -0.40845,0.265244 -0.44851,0.46635 -0.0625,0.78125 l -0.15625,24.65625 c 0.01,0.415263 -0.0707,0.607843 0.1875,0.75 l 0.0937,19.8125 c -0.38938,0.17782 -0.60247,0.315758 -0.71875,0.46875 l 0.0625,3.03125 -0.34375,0 -0.1875,4.21875 -0.78125,0.125 0,1.09375 17.21875,0.1875 1.1875,-0.46875 -0.125,-4.84375 -0.78125,-0.0625 0,-2.875 c 0.0516,-0.317872 -0.14877,-0.66115 -0.59375,-0.65625 l 0.125,-19.09375 1.4375,-0.0625 -0.0625,-4.84375 -1.375,0 0.0625,-21.53125 c 0.50183,-0.08912 0.5409,-0.467822 0,-0.65625 0,0 0.0304,-14.958799 0.0313,-14.999999 -0.0857,-0.19004 -0.0868,-0.36445 -0.46875,-0.40625 0.0153,0.0742 0,-1.375 0,-1.375 0.62327,-0.23109 0.47013,-0.6679 0,-0.75 0.0218,-3.81995 0.15625,-11.5625 0.15625,-11.5625 -0.0269,-0.28408 -0.32079,-0.22102 -0.46875,-0.34375 l 0.15625,-11.90625 c 0.48238,-0.23879 0.59375,-0.71064 -0.0937,-1.3125 l -0.0937,-1.4375 c -0.18422,-0.40229 -0.62185,-0.41617 -0.78125,0.125 -0.36913,2.62214 -2.75,2.5625 -2.75,2.5625 0,0 -5.82002,0.12051 -5.96875,0 -0.8569,0.15794 -2.21305,-0.76858 -2.625,-1.40625 l -0.0313,-1.34375 c -0.0419,-0.0898 -0.10546,-0.216 -0.21875,-0.25 z m 8.65625,7.0625 c 1.88436,-0.0234 2.22274,0.56449 2.28125,2.15625 l 0.0313,4.96875 c -0.007,1.60198 -0.70608,1.99085 -2.9375,2.125 -2.23142,0.13415 -4.06894,0 -6.09375,0 -0.81929,-0.2926 -1.14069,-1.16526 -1.1875,-2.125 l 0,-4.71875 c 0.23409,-1.20553 0.12405,-2.29694 2.5,-2.34375 l 5.40625,-0.0625 z m -0.15625,13.375 c 0.84269,0.19897 1.41468,0.40742 1.90625,1.34375 0.0117,1.64204 0.0196,3.29751 0.0313,5.03125 -0.46816,0.2809 -0.61646,0.47296 -0.0313,0.71875 l 0.0313,1.34375 c -0.45914,0.63069 -0.85659,1.3598 -2.28125,1.4375 l -4.90625,0.0625 c -1.36938,-0.0936 -1.89888,-0.20869 -2.25,-1.53125 l 0,-1.09375 c 0.45646,0.0234 0.49158,-0.60945 0,-0.65625 l 0.0313,-3.9375 c 0.0585,-2.11844 1.31753,-2.5157 2.21875,-2.5625 1.75562,-0.0468 3.49438,-0.10945 5.25,-0.15625 z m -4.5,14.75 3.65625,0 c 1.88437,-0.0468 2.18375,1.30665 2.3125,2.875 l 0,6.249999 c -0.62032,0.163857 -0.64758,0.66023 0.0313,0.71875 0.0117,0.526685 -0.0429,1.098315 -0.0313,1.625 -0.49158,0.585206 -0.74719,0.56262 -1.625,0.65625 l -6.09375,0 c -0.74906,-0.339419 -0.85171,-0.633544 -0.96875,-1.21875 l 0.0313,-0.84375 c 0.63202,-0.280899 0.35112,-0.758076 0,-0.96875 0.0469,-2.364229 0.10945,-4.729519 0.15625,-7.093749 0.63203,-1.43961 1.2672,-1.7191 2.53125,-2 z m 0.0313,17.624999 2.6875,0.09375 c 2.79729,0.02341 2.39127,1.535581 2.90625,5 l 0.0625,9.125 -8.9375,-2.90625 c 0.2692,-2.691948 0.6058,-5.214302 0.875,-7.90625 0.43305,-1.427903 0.0771,-3.417954 2.40625,-3.40625 z m -3.375,18.40625 9.46875,2.21875 0.1875,17.09375 c -0.19897,0.175562 -0.53523,0.180126 -0.59375,0.53125 l 0.0313,3.09375 c -0.33942,0.08193 -0.93762,-0.14794 -1.03125,0.25 -2.43446,-0.0117 -5.03429,-0.0508 -7.46875,-0.0625 -0.11705,-0.421349 -0.18773,-0.324438 -0.375,-0.5 l 0.0313,-3 c -0.0117,-0.39794 -0.3166,-0.375234 -0.46875,-0.5625 l 0.21875,-19.0625 z"
       style="fill:#784421;stroke:none;display:inline" /></g><g
     id="g3179"
     transform="matrix(0.50025042,0,0,0.50025042,137.46416,-495.10474)"
     style="fill:#784421;fill-opacity:1"
     inkscape:export-filename="/raid/www/devel/wikisym/lib/tpl/wikisym/pix/bridgelogo.png"
     inkscape:export-xdpi="147.63719"
     inkscape:export-ydpi="147.63719"><path
       d="m 262.76816,1049.9612 -18.34284,0 0.9672,-1.1539 8.99325,-10.7749 c 0.58823,-0.724 1.05769,-1.3405 1.40838,-1.8496 0.3846,-0.5543 0.707,-1.0803 0.9672,-1.578 0.20361,-0.4073 0.37895,-0.8484 0.52602,-1.3236 0.11311,-0.3846 0.16967,-0.7635 0.16968,-1.1368 -10e-6,-0.9842 -0.28282,-1.7534 -0.84842,-2.3077 -0.29413,-0.2715 -0.6335,-0.4751 -1.0181,-0.6109 -0.39594,-0.147 -0.8654,-0.2206 -1.40838,-0.2206 -0.48644,0 -0.90499,0.074 -1.25566,0.2206 -0.362,0.1358 -0.6844,0.3394 -0.9672,0.6109 -0.30544,0.2828 -0.53168,0.6052 -0.67874,0.9672 -0.16969,0.3846 -0.27715,0.8145 -0.32239,1.2896 l -0.0509,0.6448 -5.10749,0 0,-0.6958 c 0,-1.199 0.19796,-2.2624 0.59389,-3.19 0.41855,-0.9842 1.02376,-1.8213 1.81562,-2.5113 0.78054,-0.6901 1.70815,-1.2217 2.78282,-1.5951 1.05203,-0.3393 2.22285,-0.509 3.51246,-0.509 1.25565,0 2.36991,0.1584 3.34278,0.4751 0.96152,0.3168 1.84388,0.8145 2.64707,1.4932 0.74659,0.6788 1.30655,1.4706 1.67987,2.3756 0.37329,0.905 0.55994,1.9174 0.55996,3.0373 -2e-5,0.7919 -0.10183,1.5838 -0.30543,2.3756 -0.20364,0.7579 -0.51473,1.5498 -0.93327,2.3756 -0.39594,0.7579 -1.01812,1.7138 -1.86652,2.8676 -0.93893,1.2331 -1.98532,2.5001 -3.13915,3.801 l -2.05318,2.3925 8.33148,0 0,4.5306"
       style="font-size:34.75129318px;font-style:normal;font-variant:normal;font-weight:bold;font-stretch:normal;text-align:start;line-height:125%;letter-spacing:0px;word-spacing:0px;writing-mode:lr-tb;text-anchor:start;fill:#784421;fill-opacity:1;stroke:none;font-family:Motor Oil 1937 M54;-inkscape-font-specification:Motor Oil 1937 M54 Bold"
       id="path3167"
       inkscape:connector-curvature="0" /><path
       d="m 275.1042,1045.8209 c 0.66741,0 1.24433,-0.1584 1.73077,-0.4751 0.49773,-0.3055 0.91628,-0.7862 1.25566,-1.4423 0.35067,-0.6561 0.63348,-1.5442 0.84842,-2.6641 0.1923,-1.1312 0.28845,-2.4208 0.28847,-3.8688 -2e-5,-1.414 -0.0962,-2.681 -0.28847,-3.8009 -0.19232,-1.052 -0.46947,-1.94 -0.83145,-2.664 -0.35069,-0.6674 -0.76359,-1.1539 -1.23869,-1.4593 -0.4525,-0.3167 -0.98984,-0.4751 -1.612,-0.4751 -0.67875,0 -1.25567,0.1584 -1.73078,0.4751 -0.50906,0.3394 -0.93327,0.8258 -1.27263,1.4593 l 0,0.017 c -0.38462,0.758 -0.66177,1.6403 -0.83145,2.6471 -0.19231,1.1426 -0.28847,2.4265 -0.28846,3.8518 -1e-5,1.3688 0.0905,2.6188 0.27149,3.75 0.1923,1.0408 0.47511,1.9345 0.84842,2.6811 0.35068,0.6787 0.76357,1.1764 1.2387,1.4932 0.44117,0.3167 0.9785,0.4751 1.612,0.4751 m 9.43443,-8.1618 c -2e-5,2.0136 -0.19799,3.7783 -0.5939,5.2941 -0.40726,1.5724 -1.02378,2.9412 -1.84955,4.1064 -0.83713,1.1765 -1.83261,2.0588 -2.98644,2.6471 -1.19912,0.5882 -2.51134,0.8823 -3.93667,0.8823 -1.45929,0 -2.78283,-0.2941 -3.97061,-0.8823 -1.13123,-0.5657 -2.12671,-1.4593 -2.98644,-2.6811 -0.8258,-1.1764 -1.431,-2.5735 -1.81562,-4.1911 -0.39593,-1.6177 -0.59389,-3.4333 -0.59389,-5.4469 0,-2.0136 0.20362,-3.8122 0.61086,-5.396 0.38462,-1.6063 0.99548,-2.9977 1.83259,-4.1742 0.8371,-1.1878 1.83824,-2.0814 3.00341,-2.681 1.14253,-0.5995 2.46606,-0.8993 3.9706,-0.8993 1.50452,0 2.83371,0.2998 3.98758,0.8993 1.16515,0.6222 2.15497,1.5215 2.96947,2.698 0.79184,1.1765 1.38573,2.5905 1.78168,4.2421 0.3846,1.595 0.57691,3.4559 0.57693,5.5826"
       style="font-size:34.75129318px;font-style:normal;font-variant:normal;font-weight:bold;font-stretch:normal;text-align:start;line-height:125%;letter-spacing:0px;word-spacing:0px;writing-mode:lr-tb;text-anchor:start;fill:#784421;fill-opacity:1;stroke:none;font-family:Motor Oil 1937 M54;-inkscape-font-specification:Motor Oil 1937 M54 Bold"
       id="path3169"
       inkscape:connector-curvature="0" /><path
       sodipodi:nodetypes="ccccccc"
       d="m 292.67892,1049.9612 0,-20.7524 -4.71495,0 1.06901,-4.7342 8.61768,0 0,25.4866 -4.97174,0"
       style="font-size:34.75129318px;font-style:normal;font-variant:normal;font-weight:bold;font-stretch:normal;text-align:start;line-height:125%;letter-spacing:0px;word-spacing:0px;writing-mode:lr-tb;text-anchor:start;fill:#784421;fill-opacity:1;stroke:none;font-family:Motor Oil 1937 M54;-inkscape-font-specification:Motor Oil 1937 M54 Bold"
       id="path3171"
       inkscape:connector-curvature="0" /><path
       sodipodi:nodetypes="ccccccc"
       d="m 307.40295,1049.9612 0,-20.7524 -4.71494,0 1.06901,-4.7342 8.61767,0 0,25.4866 -4.97174,0"
       style="font-size:34.75129318px;font-style:normal;font-variant:normal;font-weight:bold;font-stretch:normal;text-align:start;line-height:125%;letter-spacing:0px;word-spacing:0px;writing-mode:lr-tb;text-anchor:start;fill:#784421;fill-opacity:1;stroke:none;font-family:Motor Oil 1937 M54;-inkscape-font-specification:Motor Oil 1937 M54 Bold"
       id="path3173"
       inkscape:connector-curvature="0" /></g><g
     id="g3145"
     inkscape:export-filename="/raid/www/devel/wikisym/lib/tpl/wikisym/pix/bridgelogo.png"
     inkscape:export-xdpi="147.63719"
     inkscape:export-ydpi="147.63719"><g
       transform="matrix(0.75018656,0,0,0.75018656,-2.3199376,274.45604)"
       id="g4212"><path
         style="font-size:medium;font-style:normal;font-variant:normal;font-weight:normal;font-stretch:normal;text-indent:0;text-align:start;text-decoration:none;line-height:normal;letter-spacing:normal;word-spacing:normal;text-transform:none;direction:ltr;block-progression:tb;writing-mode:lr-tb;text-anchor:start;baseline-shift:baseline;color:#000000;fill:#784421;fill-opacity:1;stroke:none;stroke-width:0.60000002;marker:none;visibility:visible;display:inline;overflow:visible;enable-background:accumulate;font-family:Sans;-inkscape-font-specification:Sans"
         d="m 388.63347,-265.41966 -0.26074,0.0275 c 0,0 1.08636,7.69551 2.25058,15.50702 0.5821,3.90575 1.18114,7.84015 1.67421,10.85491 0.24653,1.50738 0.46797,2.78859 0.64498,3.71895 0.0885,0.46517 0.16759,0.84689 0.23329,1.12528 0.0328,0.1392 0.0551,0.25391 0.0823,0.34308 0.0272,0.0892 0.0584,0.14931 0.0961,0.20584 l 0.21957,-0.15095 c 1.3e-4,2.1e-4 -0.0304,-0.057 -0.0549,-0.13723 -0.0245,-0.0802 -0.0503,-0.17978 -0.0823,-0.31563 -0.0641,-0.27169 -0.14519,-0.64849 -0.23329,-1.11156 -0.17622,-0.92614 -0.39865,-2.21275 -0.64499,-3.71894 -0.49267,-3.01238 -1.09219,-6.93608 -1.67421,-10.8412 -1.16402,-7.81023 -2.25057,-15.50702 -2.25057,-15.50702 z"
         id="path3790-2"
         inkscape:connector-curvature="0" /><path
         style="font-size:medium;font-style:normal;font-variant:normal;font-weight:normal;font-stretch:normal;text-indent:0;text-align:start;text-decoration:none;line-height:normal;letter-spacing:normal;word-spacing:normal;text-transform:none;direction:ltr;block-progression:tb;writing-mode:lr-tb;text-anchor:start;baseline-shift:baseline;color:#000000;fill:#784421;fill-opacity:1;stroke:none;stroke-width:0.40000001;marker:none;visibility:visible;display:inline;overflow:visible;enable-background:accumulate;font-family:Sans;-inkscape-font-specification:Sans"
         d="m 383.36383,-264.2532 -0.1784,0.0274 c 0,0 1.23825,7.09288 2.51131,14.25822 0.63653,3.58267 1.28027,7.17755 1.78399,9.92175 0.25187,1.3721 0.46892,2.52804 0.63126,3.36214 0.0812,0.41705 0.15397,0.75973 0.20585,1.00178 0.026,0.12103 0.0369,0.21524 0.0549,0.28819 0.018,0.0729 0.0377,0.11362 0.0549,0.15095 l 0.15096,-0.0686 c -2.9e-4,-6.2e-4 -0.0102,-0.0535 -0.0274,-0.12351 -0.0172,-0.07 -0.0429,-0.16816 -0.0686,-0.28819 -0.0514,-0.24005 -0.11106,-0.57159 -0.19212,-0.98805 -0.16211,-0.83292 -0.37946,-1.99037 -0.63126,-3.36215 -0.5036,-2.74355 -1.16122,-6.33924 -1.79771,-9.92174 -1.273,-7.16501 -2.49759,-14.25823 -2.49759,-14.25823 z"
         id="path3792-0"
         inkscape:connector-curvature="0" /><path
         style="font-size:medium;font-style:normal;font-variant:normal;font-weight:normal;font-stretch:normal;text-indent:0;text-align:start;text-decoration:none;line-height:normal;letter-spacing:normal;word-spacing:normal;text-transform:none;direction:ltr;block-progression:tb;writing-mode:lr-tb;text-anchor:start;baseline-shift:baseline;color:#000000;fill:#784421;fill-opacity:1;stroke:none;stroke-width:0.60000002;marker:none;visibility:visible;display:inline;overflow:visible;enable-background:accumulate;font-family:Sans;-inkscape-font-specification:Sans"
         d="m 331.21397,-309.89552 -0.45051,0.10932 c 0,0 8.10158,28.15565 18.70449,47.89336 2.65072,4.93443 5.46281,9.33749 8.3436,12.65263 2.88079,3.31515 5.83099,5.54962 8.79646,6.09303 2.96547,0.54341 5.91939,-0.63392 8.72784,-4.03457 2.80846,-3.40065 5.49912,-9.02759 7.98681,-17.46942 l -0.24702,-0.0686 c -2.48213,8.42298 -5.16204,14.01942 -7.93191,17.37335 -2.76987,3.35393 -5.61083,4.46442 -8.48083,3.93851 -2.87,-0.52592 -5.79875,-2.7052 -8.65923,-5.99696 -2.86048,-3.29177 -5.65744,-7.68772 -8.30243,-12.61147 -10.57995,-19.69498 -18.48727,-47.87917 -18.48727,-47.87917 z"
         id="path3796-2"
         inkscape:connector-curvature="0"
         sodipodi:nodetypes="ccssssccssssc" /><path
         style="font-size:medium;font-style:normal;font-variant:normal;font-weight:normal;font-stretch:normal;text-indent:0;text-align:start;text-decoration:none;line-height:normal;letter-spacing:normal;word-spacing:normal;text-transform:none;direction:ltr;block-progression:tb;writing-mode:lr-tb;text-anchor:start;baseline-shift:baseline;color:#000000;fill:#784421;fill-opacity:1;stroke:none;stroke-width:0.69999999;marker:none;visibility:visible;display:inline;overflow:visible;enable-background:accumulate;font-family:Sans;-inkscape-font-specification:Sans"
         d="m 342.19474,-308.55113 -0.31904,0.19205 c 0,0 6.9863,27.68591 16.30637,47.11122 2.33002,4.85633 4.81037,9.18449 7.36927,12.43307 2.55889,3.24857 5.20556,5.43 7.89074,5.92834 2.68517,0.49834 5.38388,-0.72573 7.95935,-4.14435 2.57548,-3.41862 5.05158,-9.04381 7.39671,-17.45569 l -0.28818,-0.0823 c -2.33954,8.39183 -4.82053,13.99471 -7.35554,17.35963 -2.53502,3.36492 -5.09529,4.49636 -7.65745,4.02085 -2.56217,-0.47551 -5.16231,-2.59867 -7.69862,-5.81857 -2.53631,-3.2199 -5.004,-7.53418 -7.3281,-12.37817 -9.2964,-19.37597 -16.27551,-47.16604 -16.27551,-47.16604 z"
         id="path3794-3"
         inkscape:connector-curvature="0"
         sodipodi:nodetypes="ccssssccssssc" /><path
         style="font-size:medium;font-style:normal;font-variant:normal;font-weight:normal;font-stretch:normal;text-indent:0;text-align:start;text-decoration:none;line-height:normal;letter-spacing:normal;word-spacing:normal;text-transform:none;direction:ltr;block-progression:tb;writing-mode:lr-tb;text-anchor:start;baseline-shift:baseline;color:#000000;fill:#784421;fill-opacity:1;stroke:none;stroke-width:1px;marker:none;visibility:visible;display:inline;overflow:visible;enable-background:accumulate;font-family:Sans;-inkscape-font-specification:Sans"
         d="m 341.12435,-309.42941 c 0,0 -4.62057,9.25053 -11.4999,20.51593 -6.87933,11.2654 -17.35245,25.51065 -26.36091,33.50465 l 0.28818,0.32935 c 9.07843,-8.05608 19.55372,-22.31859 26.44325,-33.60071 6.88953,-11.28212 11.51362,-20.55709 11.51362,-20.55709 z"
         id="path3798-7"
         inkscape:connector-curvature="0"
         sodipodi:nodetypes="csccscc" /><path
         style="font-size:medium;font-style:normal;font-variant:normal;font-weight:normal;font-stretch:normal;text-indent:0;text-align:start;text-decoration:none;line-height:normal;letter-spacing:normal;word-spacing:normal;text-transform:none;direction:ltr;block-progression:tb;writing-mode:lr-tb;text-anchor:start;baseline-shift:baseline;color:#000000;fill:#784421;fill-opacity:1;stroke:none;stroke-width:0.80000001;marker:none;visibility:visible;display:inline;overflow:visible;enable-background:accumulate;font-family:Sans;-inkscape-font-specification:Sans"
         d="m 330.32432,-308.92165 c -16.68656,32.55915 -39.76908,52.67132 -39.76908,52.67132 l 0.21957,0.27446 c 0,0 23.14798,-20.17597 39.86514,-52.79483 z"
         id="path3800-5"
         inkscape:connector-curvature="0"
         sodipodi:nodetypes="ccccc" /><path
         style="fill:#784421;stroke:none;display:inline"
         d="m 395,-231.57591 c -20.95447,-10.02326 -28.09133,-9.26961 -59.72009,-14.72425 -45.87859,-4.63922 -72.17739,-2.48698 -99.87816,2.03931 6.5734,-4.52869 7.4626,-6.74159 10.036,-10.6387 0,0 36.30253,-4.16468 75.84037,0.631 29.77121,5.92885 48.01628,7.61799 73.63807,20.88896 0,0 0.15799,1.75496 0.0838,1.80368 z"
         id="path3217-9"
         inkscape:connector-curvature="0"
         sodipodi:nodetypes="ccccccc" /><path
         style="fill:#784421;stroke:none;display:inline"
         d="m 341.8105,-310.84288 -0.64498,0.0137 c -0.0406,1.05202 -0.14482,1.50381 -0.68616,2.30547 -1.36688,0.95837 -7.15505,1.10928 -8.79646,0.31563 -0.31004,-0.7373 -0.21957,-1.42204 -0.32935,-2.20941 l -0.63126,0 -0.0961,1.48208 c -0.52623,0.24075 -1.00106,0.44363 -0.43914,1.18019 l -0.0549,11.07448 -0.31563,0.15095 0.0411,6.38121 -0.24702,0.21957 0.0412,5.87345 -0.32935,0.21957 0,13.29762 c -0.31784,0.28451 -0.38228,0.52451 0.0961,0.76849 l -0.20584,17.07144 -0.32936,0.10979 0.10979,5.47548 0.0686,0.50776 0.20585,17.62036 -0.60382,0.43914 0.0138,2.70344 -0.61754,0.4803 -0.23329,2.90928 16.12456,0.13723 -0.19212,-3.37586 -0.69988,0.0275 0,-2.77206 -0.41169,-0.34307 -0.0686,-17.34591 1.46836,0.0137 0,-4.4737 -1.3723,-0.0549 0.16467,-19.25341 c 0.30061,-0.0381 0.33984,-0.43146 0,-0.50775 l 0.0138,-13.5858 -0.23329,-0.16468 0.0137,-1.64676 c 0.16236,-0.29467 0.29778,-0.35689 -0.0411,-0.57637 l -0.0686,-10.48439 -0.21957,-0.27446 -0.0412,-10.62162 c 0.81539,-0.96671 0.24056,-0.82192 -0.34307,-1.23508 -0.11941,-0.68008 -0.14079,-1.14746 -0.10979,-1.85261 z m -3.60916,6.76545 c 1.03234,-8.7e-4 1.83271,0.0892 2.07218,0.43914 0.27081,1.30482 0.25072,2.50529 0.23329,3.73267 -0.0177,1.24536 0.14399,2.84687 -0.3568,3.40331 -0.96617,0.62303 -2.23252,0.62102 -3.815,0.63126 -1.58248,0.0102 -3.77534,0.13689 -4.19925,-0.15096 -0.3789,-0.29498 -0.26627,-1.91082 -0.28818,-3.43076 -0.0219,-1.51993 -0.16169,-3.1745 0.48031,-3.9934 0.53318,-0.61025 1.96608,-0.50124 3.84244,-0.57636 0.70364,-0.0281 1.41161,-0.0544 2.03101,-0.0549 z m -0.57637,12.10371 c 0.76823,0.002 1.51926,0.0886 2.03101,0.46659 0.36894,0.90619 0.31743,2.09818 0.39797,3.15629 0.0497,0.65003 0.0345,1.29709 0.0549,1.94867 -0.34384,0.37602 -0.32651,0.43561 0.0138,0.68616 -0.0271,0.57245 0.18215,1.29292 -0.21957,1.70165 -0.82909,0.6681 -2.1336,0.51099 -3.55426,0.57637 -1.27497,0.0587 -3.38468,0.36655 -3.71895,-0.23329 -0.48584,-0.38318 -0.45743,-2.25117 -0.39796,-3.60916 0.0531,-1.21319 -0.25097,-3.29497 0.60381,-4.00712 0.81431,-0.82171 2.27424,-0.61719 3.43076,-0.64499 0.42391,-0.0102 0.89765,-0.0424 1.35858,-0.0411 z m -0.32935,13.35251 c 0.98811,-0.0161 1.45577,0.0828 1.75655,0.52148 0.77701,0.55978 0.47429,2.31522 0.69987,4.10318 0.008,1.03602 0.0484,2.37864 -0.0686,3.38959 -0.22559,0.23394 -0.52636,0.42238 0,0.63126 0.0418,0.73523 0.20593,1.44027 -0.1784,1.67421 -0.91904,0.46788 -2.14175,0.23983 -3.21119,0.3568 -1.21982,-0.0501 -2.5379,0.12714 -3.73266,-0.12351 -0.23394,-0.38433 -0.0948,-1.15559 -0.1784,-1.71538 0.22559,0.0334 0.60393,-0.32273 0.0274,-0.59009 0.0251,-1.02766 0.0298,-1.96396 0.0549,-2.99162 0.19216,-2.06368 0.0589,-3.80527 0.72732,-4.66583 0.22558,-0.72688 1.71989,-0.49879 2.923,-0.54892 0.45744,-0.023 0.85081,-0.0358 1.18018,-0.0412 z m -0.76849,15.72659 c 1.20516,0.0141 1.72054,0.20339 2.19569,0.7136 0.8278,2.38824 0.83113,5.93122 0.96061,9.09836 0.0501,8.83667 0.39627,11.23043 0.15095,24.0153 l -0.50775,0.42542 0,2.60737 c -0.54233,0.49401 -2.36531,0.2165 -3.55426,0.24702 -1.31989,0.0339 -3.96596,-0.0823 -3.96596,-0.0823 l 0.0823,-2.75833 -0.48031,-0.49403 0.15096,-18.5947 0.82338,-3.73266 c -0.0579,-2.97791 -0.38693,-6.90326 0.54892,-9.90803 0.31263,-1.55714 1.2698,-1.36277 3.03279,-1.52326 0.20217,-0.004 0.39048,-0.0157 0.56264,-0.0137 z"
         id="path3219-2"
         inkscape:connector-curvature="0" /><path
         style="fill:#784421;stroke:none;display:inline"
         d="m 383.24032,-265.69412 c -0.0498,-0.0149 -0.11658,0.0132 -0.20585,0.13723 l -0.0274,0.63126 c -0.0381,0.0565 -0.55987,0.19207 -0.15096,0.46659 l -0.0823,5.33825 -0.13723,0.20585 -0.0549,4.99518 c -0.17574,0.0157 -0.19213,0.29986 0.0138,0.31563 l 0.0137,0.74104 c -0.0672,0.0192 -0.16854,0.0143 -0.19212,0.10979 l -0.0686,6.54588 c -0.17937,0.11648 -0.19696,0.20479 -0.0274,0.34308 l -0.0686,10.82747 c 0.004,0.18235 -0.031,0.26692 0.0823,0.32935 l 0.0412,8.7004 c -0.17099,0.0781 -0.26457,0.13866 -0.31563,0.20584 l 0.0274,1.33114 -0.15096,0 -0.0823,1.85261 -0.34307,0.0549 0,0.4803 7.56139,0.0823 0.52147,-0.20584 -0.0549,-2.12707 -0.34308,-0.0274 0,-1.26252 c 0.0227,-0.13959 -0.0653,-0.29033 -0.26073,-0.28818 l 0.0549,-8.38477 0.63126,-0.0275 -0.0274,-2.12707 -0.60381,0 0.0274,-9.45516 c 0.22038,-0.0391 0.23753,-0.20544 0,-0.28819 0,0 0.0134,-6.56896 0.0138,-6.58705 -0.0376,-0.0834 -0.0381,-0.16004 -0.20585,-0.1784 0.007,0.0326 0,-0.60381 0,-0.60381 0.27371,-0.10148 0.20646,-0.2933 0,-0.32935 0.01,-1.67748 0.0686,-5.07752 0.0686,-5.07752 -0.0118,-0.12475 -0.14087,-0.0971 -0.20585,-0.15096 l 0.0686,-5.22847 c 0.21183,-0.10486 0.26074,-0.31207 -0.0412,-0.57637 l -0.0411,-0.63126 c -0.0809,-0.17666 -0.27308,-0.18275 -0.34308,0.0549 -0.1621,1.15147 -1.20763,1.12528 -1.20763,1.12528 0,0 -2.55578,0.0529 -2.6211,0 -0.37629,0.0694 -0.97183,-0.33751 -1.15273,-0.61753 l -0.0137,-0.59009 c -0.0184,-0.0394 -0.0463,-0.0949 -0.0961,-0.10979 z m 3.80128,3.10141 c 0.82749,-0.0103 0.97608,0.24789 1.00178,0.94689 l 0.0137,2.18196 c -0.003,0.70349 -0.31006,0.87425 -1.28996,0.93316 -0.9799,0.0589 -1.78682,0 -2.67599,0 -0.35978,-0.12849 -0.50092,-0.51171 -0.52148,-0.93316 l 0,-2.07218 c 0.1028,-0.52939 0.0545,-1.00867 1.09785,-1.02923 l 2.37408,-0.0274 z m -0.0686,5.87345 c 0.37006,0.0874 0.62124,0.17892 0.83711,0.59009 0.005,0.72108 0.009,1.44806 0.0137,2.20941 -0.20558,0.12335 -0.27071,0.20769 -0.0137,0.31563 l 0.0137,0.59009 c -0.20162,0.27696 -0.37616,0.59714 -1.00178,0.63126 l -2.15451,0.0274 c -0.60135,-0.0411 -0.83387,-0.0916 -0.98806,-0.67243 l 0,-0.48031 c 0.20045,0.0103 0.21587,-0.26763 0,-0.28818 l 0.0137,-1.7291 c 0.0257,-0.93029 0.57858,-1.10474 0.97434,-1.12529 0.77095,-0.0206 1.53451,-0.0481 2.30547,-0.0686 z m -1.97611,6.47727 1.60559,0 c 0.8275,-0.0206 0.95897,0.5738 1.0155,1.26252 l 0,2.74461 c -0.2724,0.0719 -0.28437,0.28993 0.0138,0.31562 0.005,0.23129 -0.0188,0.48232 -0.0138,0.7136 -0.21587,0.25699 -0.32811,0.24707 -0.71359,0.28819 l -2.67599,0 c -0.32894,-0.14906 -0.37402,-0.27822 -0.42542,-0.5352 l 0.0138,-0.37052 c 0.27754,-0.12336 0.15419,-0.3329 0,-0.42542 0.0206,-1.03822 0.0481,-2.0769 0.0686,-3.11512 0.27755,-0.63219 0.55648,-0.75492 1.11157,-0.87828 z m 0.0137,7.73979 1.18018,0.0412 c 1.22839,0.0103 1.0501,0.67433 1.27624,2.19568 l 0.0274,4.00713 -3.92479,-1.27625 c 0.11822,-1.18213 0.26603,-2.28979 0.38425,-3.47192 0.19017,-0.62705 0.0339,-1.50095 1.05667,-1.49581 z m -1.48209,8.08286 4.15808,0.97434 0.0823,7.50649 c -0.0874,0.0771 -0.23504,0.0791 -0.26074,0.23329 l 0.0138,1.35858 c -0.14905,0.036 -0.41175,-0.065 -0.45286,0.10979 -1.06906,-0.005 -2.21075,-0.0223 -3.27981,-0.0274 -0.0514,-0.18503 -0.0824,-0.14247 -0.16467,-0.21957 l 0.0137,-1.31741 c -0.005,-0.17475 -0.13903,-0.16478 -0.20584,-0.24701 l 0.0961,-8.37105 z"
         id="path4020-2"
         inkscape:connector-curvature="0" /></g><g
       transform="matrix(0.75018656,0,0,0.75018656,-2.3199376,274.45604)"
       id="g4245"
       style="display:inline"><path
         inkscape:connector-curvature="0"
         id="path2958"
         style="fill:#211d1d;fill-opacity:1;fill-rule:nonzero;stroke:none"
         d="m 57.285396,-258.8233 -11.380267,-47.94098 11.593943,0 3.627126,19.70343 c 1.067845,5.76228 2.061731,11.94965 2.845973,16.85836 l 0.141869,0 c 0.78263,-5.26532 1.920939,-11.02508 3.129039,-17.00076 l 4.054209,-19.56103 11.522001,0 3.840936,20.20085 c 1.067846,5.62055 1.85061,10.74046 2.560759,16.07634 l 0.141868,0 c 0.711628,-5.33588 1.779609,-10.95482 2.774973,-16.71616 l 3.911801,-19.56103 11.025664,0 -12.375633,47.94098 -11.7385,0 -4.054074,-20.62626 c -0.923019,-4.83672 -1.704572,-9.31841 -2.275542,-14.79507 l -0.143483,0 c -0.852017,5.40512 -1.633571,9.95835 -2.77188,14.79507 l -4.553102,20.62626 -11.87768,0" /><path
         inkscape:connector-curvature="0"
         id="path2960"
         style="fill:#211d1d;fill-opacity:1;fill-rule:nonzero;stroke:none"
         d="m 111.9709,-258.8233 10.81189,0 0,-34.78151 -10.81189,0 0,34.78151 z" /><path
         inkscape:connector-curvature="0"
         id="path2962"
         style="fill:#211d1d;fill-opacity:1;fill-rule:nonzero;stroke:none"
         d="m 141.43408,-278.88115 0.14186,0 c 0.78264,-1.49292 1.63626,-2.91537 2.48976,-4.19541 l 7.04179,-10.52825 13.01692,0 -12.4481,14.08383 14.22718,20.69768 -13.30201,0 -8.46477,-14.29547 -2.70263,3.48425 0,10.81122 -10.81132,0 0,-50.50066 10.81132,0 0,30.44281" /><path
         inkscape:connector-curvature="0"
         id="path2964"
         style="fill:#211d1d;fill-opacity:1;fill-rule:nonzero;stroke:none"
         d="m 169.86773,-258.8233 10.81032,0 0,-34.78151 -10.81032,0 0,34.78151 z" /><path
         inkscape:connector-curvature="0"
         id="path2966"
         style="fill:#7a7d80;fill-opacity:1;fill-rule:nonzero;stroke:none"
         d="m 190.0655,-269.91975 c 2.84812,1.49596 7.39867,2.98767 12.02183,2.98767 4.97817,0 7.60979,-2.06319 7.60979,-5.26222 0,-2.9169 -2.27526,-4.69451 -8.03606,-6.68685 -7.96616,-2.84437 -13.2294,-7.2552 -13.2294,-14.29658 0,-8.17928 6.89977,-14.3681 18.13629,-14.3681 5.47707,0 9.38886,1.06637 12.2343,2.41888 l -2.41782,8.6767 c -1.85034,-0.92355 -5.33586,-2.27607 -9.95767,-2.27607 -4.69578,0 -6.97106,2.20507 -6.97106,4.6241 0,3.05817 2.63163,4.40975 8.89132,6.82864 8.4637,3.12904 12.37549,7.53879 12.37549,14.36762 0,8.03666 -6.1158,14.86426 -19.27661,14.86426 -5.47572,0 -10.88286,-1.49234 -13.58575,-2.98612 l 2.20535,-8.89193" /><path
         inkscape:connector-curvature="0"
         id="path2968"
         style="fill:#7a7d80;fill-opacity:1;fill-rule:nonzero;stroke:none"
         d="m 234.09176,-293.60481 5.19199,17.07162 c 0.57016,2.06341 1.28018,4.62256 1.7078,6.47316 l 0.21381,0 c 0.49754,-1.8506 1.06502,-4.48228 1.56391,-6.47316 l 4.26816,-17.07162 11.59287,0 -8.10735,22.90336 c -4.97951,13.79899 -8.32384,19.27412 -12.2343,22.76199 -3.69933,3.26989 -7.68241,4.47907 -10.45523,4.7643 l -2.27796,-9.10474 c 1.35145,-0.28305 3.05925,-0.92447 4.69443,-1.84904 1.63653,-0.85299 3.48552,-2.63106 4.48197,-4.33817 0.355,-0.569 0.56881,-1.06693 0.56881,-1.56703 0,-0.3535 -0.0713,-0.92333 -0.42627,-1.77538 l -12.80447,-31.79529 12.02183,0" /><path
         inkscape:connector-curvature="0"
         id="path2970"
         style="fill:#7a7d80;fill-opacity:1;fill-rule:nonzero;stroke:none"
         d="m 262.82046,-282.50828 c 0,-4.33875 -0.1412,-7.96749 -0.28509,-11.09653 l 9.17505,0 0.42763,4.7653 0.21247,0 c 1.49399,-2.27554 4.62181,-5.54792 10.52784,-5.54792 4.5519,0 8.03876,2.34788 9.53006,5.97501 l 0.14254,0 c 1.35145,-1.849 2.84544,-3.27253 4.55189,-4.26627 1.92162,-1.06799 4.05569,-1.70874 6.61605,-1.70874 6.68597,0 11.73676,4.69496 11.73676,15.0792 l 0,20.48493 -10.52785,0 0,-18.84975 c 0,-5.04891 -1.63518,-7.96427 -5.12206,-7.96427 -2.55901,0 -4.26816,1.7066 -5.04944,3.76832 -0.21381,0.78317 -0.35635,1.849 -0.35635,2.70425 l 0,20.34145 -10.52515,0 0,-19.48796 c 0,-4.33876 -1.56526,-7.32606 -5.05214,-7.32606 -2.77282,0 -4.40935,2.13368 -5.04809,3.8408 -0.355,0.85364 -0.42627,1.84792 -0.42627,2.7735 l 0,20.19972 -10.52785,0 0,-23.68498" /><path
         inkscape:connector-curvature="0"
         id="path2972"
         style="fill:#5248a1;fill-opacity:1;fill-rule:nonzero;stroke:none"
         d="m 121.59308,-299.05202 c -2.36376,2.32073 -6.16153,2.28495 -8.48064,-0.0813 -2.32072,-2.3612 -2.28402,-6.16058 0.0799,-8.48185 2.36268,-2.32072 6.16152,-2.27702 8.48225,0.0815 2.32019,2.36846 2.28226,6.16516 -0.0815,8.48171" /><path
         inkscape:connector-curvature="0"
         id="path2974"
         style="fill:#211d1d;fill-opacity:1;fill-rule:nonzero;stroke:none"
         d="m 179.24181,-299.05202 c -2.36537,2.32073 -6.16153,2.28495 -8.48252,-0.0813 -2.31965,-2.3612 -2.28334,-6.16058 0.082,-8.48185 2.36269,-2.32072 6.16153,-2.27702 8.47984,0.0815 2.32099,2.36846 2.28468,6.16516 -0.0794,8.48171" /></g><g
       transform="matrix(0.75018656,0,0,0.75018656,-2.3199376,274.45604)"
       id="g4267"
       style="display:inline"><path
         inkscape:connector-curvature="0"
         id="path2932"
         style="fill:#5248a1;fill-opacity:1;fill-rule:nonzero;stroke:none"
         d="m 85.937436,-231.53641 c -1.231767,-3.0546 0.246892,-6.53461 3.306677,-7.76634 3.055483,-1.23401 6.533479,0.2485 7.765242,3.30455 1.231772,3.06081 -0.248498,6.54081 -3.304115,7.77265 -3.058714,1.22645 -6.536036,-0.25326 -7.767804,-3.31086" /><path
         inkscape:connector-curvature="0"
         id="path2934"
         style="fill:#f1511e;fill-opacity:1;fill-rule:nonzero;stroke:none"
         d="m 46.270625,-236.83867 c 1.289591,-3.0335 4.796901,-4.44545 7.833019,-3.1533 3.029932,1.28594 4.445524,4.79482 3.155934,7.82676 -1.294836,3.03505 -4.801069,4.44493 -7.835574,3.15537 -3.032488,-1.29329 -4.443911,-4.79792 -3.153379,-7.82883" /><path
         inkscape:connector-curvature="0"
         id="path2936"
         style="fill:#7ac326;fill-opacity:1;fill-rule:nonzero;stroke:none"
         d="m 19.873635,-269.36306 c 3.057149,-1.22759 6.537699,0.24581 7.773098,3.30145 1.226522,3.0634 -0.254691,6.54227 -3.311869,7.77141 -3.055576,1.23452 -6.535575,-0.24529 -7.773138,-3.30238 -1.230221,-3.0576 0.252136,-6.53243 3.311909,-7.77048" /><path
         inkscape:connector-curvature="0"
         id="path2938"
         style="fill:#5248a1;fill-opacity:1;fill-rule:nonzero;stroke:none"
         d="m 24.551809,-310.66761 c 3.032931,1.28743 4.447581,4.79582 3.15436,7.82831 -1.288515,3.03612 -4.797452,4.44646 -7.830962,3.15432 -3.033509,-1.29214 -4.442848,-4.79327 -3.150124,-7.82832 1.289053,-3.03611 4.79163,-4.45022 7.826726,-3.15431" /><path
         inkscape:connector-curvature="0"
         id="path2940"
         style="fill:#f1511e;fill-opacity:1;fill-rule:nonzero;stroke:none"
         d="m 57.066878,-336.21414 c 1.231767,3.05292 -0.248504,6.52863 -3.308291,7.76309 -3.058171,1.23499 -6.532939,-0.24905 -7.767933,-3.30614 -1.231768,-3.0571 0.251194,-6.53455 3.306677,-7.76632 3.059785,-1.23338 6.536166,0.25214 7.769547,3.30937" /><path
         inkscape:connector-curvature="0"
         id="path2942"
         style="fill:#bf1b2c;fill-opacity:1;fill-rule:nonzero;stroke:none"
         d="m 64.873541,-230.10977 c 0.03053,-3.29514 2.727234,-5.94513 6.025037,-5.9084 3.297129,0.031 5.947177,2.72624 5.913559,6.02654 -0.03309,3.29359 -2.734497,5.94203 -6.024902,5.90789 -3.300357,-0.03 -5.943547,-2.73038 -5.913694,-6.02603" /><path
         inkscape:connector-curvature="0"
         id="path2944"
         style="fill:#efb409;fill-opacity:1;fill-rule:nonzero;stroke:none"
         d="m 30.256438,-250.18929 c 2.353268,-2.31066 6.135305,-2.27445 8.439625,0.0817 2.313867,2.35329 2.271911,6.13373 -0.0788,8.44232 -2.355822,2.30704 -6.134228,2.27176 -8.443927,-0.0838 -2.304319,-2.35173 -2.269222,-6.13176 0.0831,-8.44035" /><path
         inkscape:connector-curvature="0"
         id="path2946"
         style="fill:#4da5db;fill-opacity:1;fill-rule:nonzero;stroke:none"
         d="m 18.314064,-290.3413 c 3.295636,0.0336 5.944635,2.72885 5.913115,6.03298 -0.03571,3.29349 -2.731472,5.93937 -6.029192,5.91301 -3.295636,-0.0351 -5.942006,-2.73933 -5.913115,-6.0292 0.03677,-3.29982 2.729898,-5.94879 6.029192,-5.91679" /><path
         inkscape:connector-curvature="0"
         id="path2948"
         style="fill:#bf1b2c;fill-opacity:1;fill-rule:nonzero;stroke:none"
         d="m 38.446616,-326.71339 c 2.305933,2.35487 2.269222,6.13691 -0.08405,8.44391 -2.35488,2.30864 -6.136918,2.26762 -8.441371,-0.084 -2.309564,-2.35072 -2.274466,-6.12845 0.0788,-8.43613 2.355958,-2.30957 6.13275,-2.27541 8.446617,0.0762" /><path
         inkscape:connector-curvature="0"
         id="path2950"
         style="fill:#efb409;fill-opacity:1;fill-rule:nonzero;stroke:none"
         d="m 78.258791,-337.873 c -0.03093,3.29875 -2.723604,5.94086 -6.024499,5.91195 -3.297667,-0.0299 -5.947715,-2.73249 -5.91719,-6.03283 0.0351,-3.28664 2.735035,-5.93831 6.032836,-5.9094 3.296189,0.0383 5.944623,2.73409 5.908853,6.03028" /><path
         inkscape:connector-curvature="0"
         id="path2952"
         style="fill:#7ac326;fill-opacity:1;fill-rule:nonzero;stroke:none"
         d="m 97.748414,-331.41993 c -1.291197,3.0345 -4.795817,4.44391 -7.827771,3.1527 -3.035042,-1.29053 -4.449692,-4.79528 -3.159564,-7.83033 1.293222,-3.03356 4.799456,-4.44135 7.834637,-3.15432 3.034501,1.29484 4.444847,4.80268 3.152698,7.83195" /><path
         inkscape:connector-curvature="0"
         id="path2954"
         style="fill:#4da5db;fill-opacity:1;fill-rule:nonzero;stroke:none"
         d="m 113.45965,-317.94755 c -2.35703,2.30862 -6.13692,2.27138 -8.44393,-0.0856 -2.31024,-2.34547 -2.27192,-6.12643 0.0788,-8.44138 2.35488,-2.30862 6.13423,-2.26652 8.44648,0.083 2.30607,2.3596 2.27191,6.13908 -0.0813,8.44393" /><path
         inkscape:connector-curvature="0"
         id="path2956"
         style="fill:#7ac326;fill-opacity:1;fill-rule:nonzero;stroke:none"
         d="m 103.19455,-242.01264 c -1.23176,-3.05616 0.2469,-6.53192 3.30238,-7.76169 3.05979,-1.2339 6.53308,0.2485 7.76901,3.30724 1.23177,3.05822 -0.24689,6.53461 -3.30305,7.77162 -3.06341,1.22118 -6.54073,-0.25378 -7.76834,-3.31717" /></g></g></g></svg>