<?xml version="1.0" encoding="UTF-8" standalone="no"?>
<!-- Created with Inkscape (http://www.inkscape.org/) -->

<svg
   xmlns:dc="http://purl.org/dc/elements/1.1/"
   xmlns:cc="http://creativecommons.org/ns#"
   xmlns:rdf="http://www.w3.org/1999/02/22-rdf-syntax-ns#"
   xmlns:svg="http://www.w3.org/2000/svg"
   xmlns="http://www.w3.org/2000/svg"
   xmlns:sodipodi="http://sodipodi.sourceforge.net/DTD/sodipodi-0.dtd"
   xmlns:inkscape="http://www.inkscape.org/namespaces/inkscape"
   width="470"
   height="130"
   id="svg2"
   version="1.1"
   inkscape:version="0.48.0 r9654"
   sodipodi:docname="wikisym 2010 standalone logo without tagline.svg"
   inkscape:export-filename="/home/andi/temp/2010-12-04/wikisym.png"
   inkscape:export-xdpi="90"
   inkscape:export-ydpi="90">
  <defs
     id="defs4">
    <linearGradient
       id="linearGradient4129">
      <stop
         style="stop-color:#ffffff;stop-opacity:0;"
         offset="0"
         id="stop4131" />
      <stop
         style="stop-color:#ffffff;stop-opacity:1;"
         offset="1"
         id="stop4133" />
    </linearGradient>
    <inkscape:perspective
       sodipodi:type="inkscape:persp3d"
       inkscape:vp_x="0 : 526.18109 : 1"
       inkscape:vp_y="0 : 1000 : 0"
       inkscape:vp_z="744.09448 : 526.18109 : 1"
       inkscape:persp3d-origin="372.04724 : 350.78739 : 1"
       id="perspective10" />
    <inkscape:perspective
       id="perspective2905"
       inkscape:persp3d-origin="0.5 : 0.33333333 : 1"
       inkscape:vp_z="1 : 0.5 : 1"
       inkscape:vp_y="0 : 1000 : 0"
       inkscape:vp_x="0 : 0.5 : 1"
       sodipodi:type="inkscape:persp3d" />
    <inkscape:perspective
       id="perspective2963"
       inkscape:persp3d-origin="0.5 : 0.33333333 : 1"
       inkscape:vp_z="1 : 0.5 : 1"
       inkscape:vp_y="0 : 1000 : 0"
       inkscape:vp_x="0 : 0.5 : 1"
       sodipodi:type="inkscape:persp3d" />
    <inkscape:perspective
       id="perspective2996"
       inkscape:persp3d-origin="0.5 : 0.33333333 : 1"
       inkscape:vp_z="1 : 0.5 : 1"
       inkscape:vp_y="0 : 1000 : 0"
       inkscape:vp_x="0 : 0.5 : 1"
       sodipodi:type="inkscape:persp3d" />
    <inkscape:perspective
       id="perspective2996-3"
       inkscape:persp3d-origin="0.5 : 0.33333333 : 1"
       inkscape:vp_z="1 : 0.5 : 1"
       inkscape:vp_y="0 : 1000 : 0"
       inkscape:vp_x="0 : 0.5 : 1"
       sodipodi:type="inkscape:persp3d" />
    <inkscape:perspective
       id="perspective2996-9"
       inkscape:persp3d-origin="0.5 : 0.33333333 : 1"
       inkscape:vp_z="1 : 0.5 : 1"
       inkscape:vp_y="0 : 1000 : 0"
       inkscape:vp_x="0 : 0.5 : 1"
       sodipodi:type="inkscape:persp3d" />
    <inkscape:perspective
       id="perspective2996-5"
       inkscape:persp3d-origin="0.5 : 0.33333333 : 1"
       inkscape:vp_z="1 : 0.5 : 1"
       inkscape:vp_y="0 : 1000 : 0"
       inkscape:vp_x="0 : 0.5 : 1"
       sodipodi:type="inkscape:persp3d" />
    <inkscape:perspective
       id="perspective2996-2"
       inkscape:persp3d-origin="0.5 : 0.33333333 : 1"
       inkscape:vp_z="1 : 0.5 : 1"
       inkscape:vp_y="0 : 1000 : 0"
       inkscape:vp_x="0 : 0.5 : 1"
       sodipodi:type="inkscape:persp3d" />
    <inkscape:perspective
       id="perspective2996-7"
       inkscape:persp3d-origin="0.5 : 0.33333333 : 1"
       inkscape:vp_z="1 : 0.5 : 1"
       inkscape:vp_y="0 : 1000 : 0"
       inkscape:vp_x="0 : 0.5 : 1"
       sodipodi:type="inkscape:persp3d" />
    <inkscape:perspective
       id="perspective2996-91"
       inkscape:persp3d-origin="0.5 : 0.33333333 : 1"
       inkscape:vp_z="1 : 0.5 : 1"
       inkscape:vp_y="0 : 1000 : 0"
       inkscape:vp_x="0 : 0.5 : 1"
       sodipodi:type="inkscape:persp3d" />
    <inkscape:perspective
       id="perspective2996-4"
       inkscape:persp3d-origin="0.5 : 0.33333333 : 1"
       inkscape:vp_z="1 : 0.5 : 1"
       inkscape:vp_y="0 : 1000 : 0"
       inkscape:vp_x="0 : 0.5 : 1"
       sodipodi:type="inkscape:persp3d" />
    <inkscape:perspective
       id="perspective2996-76"
       inkscape:persp3d-origin="0.5 : 0.33333333 : 1"
       inkscape:vp_z="1 : 0.5 : 1"
       inkscape:vp_y="0 : 1000 : 0"
       inkscape:vp_x="0 : 0.5 : 1"
       sodipodi:type="inkscape:persp3d" />
    <inkscape:perspective
       id="perspective2996-8"
       inkscape:persp3d-origin="0.5 : 0.33333333 : 1"
       inkscape:vp_z="1 : 0.5 : 1"
       inkscape:vp_y="0 : 1000 : 0"
       inkscape:vp_x="0 : 0.5 : 1"
       sodipodi:type="inkscape:persp3d" />
    <inkscape:perspective
       id="perspective2996-1"
       inkscape:persp3d-origin="0.5 : 0.33333333 : 1"
       inkscape:vp_z="1 : 0.5 : 1"
       inkscape:vp_y="0 : 1000 : 0"
       inkscape:vp_x="0 : 0.5 : 1"
       sodipodi:type="inkscape:persp3d" />
    <inkscape:perspective
       id="perspective2996-25"
       inkscape:persp3d-origin="0.5 : 0.33333333 : 1"
       inkscape:vp_z="1 : 0.5 : 1"
       inkscape:vp_y="0 : 1000 : 0"
       inkscape:vp_x="0 : 0.5 : 1"
       sodipodi:type="inkscape:persp3d" />
    <inkscape:perspective
       id="perspective2996-38"
       inkscape:persp3d-origin="0.5 : 0.33333333 : 1"
       inkscape:vp_z="1 : 0.5 : 1"
       inkscape:vp_y="0 : 1000 : 0"
       inkscape:vp_x="0 : 0.5 : 1"
       sodipodi:type="inkscape:persp3d" />
    <inkscape:perspective
       id="perspective4113"
       inkscape:persp3d-origin="0.5 : 0.33333333 : 1"
       inkscape:vp_z="1 : 0.5 : 1"
       inkscape:vp_y="0 : 1000 : 0"
       inkscape:vp_x="0 : 0.5 : 1"
       sodipodi:type="inkscape:persp3d" />
    <clipPath
       id="clipPath2928"
       clipPathUnits="userSpaceOnUse">
      <path
         id="path2930"
         d="M 0,891.035 0,0 l 2254.52,0 0,891.035 -2254.52,0 z" />
    </clipPath>
    <inkscape:perspective
       id="perspective2918"
       inkscape:persp3d-origin="0.5 : 0.33333333 : 1"
       inkscape:vp_z="1 : 0.5 : 1"
       inkscape:vp_y="0 : 1000 : 0"
       inkscape:vp_x="0 : 0.5 : 1"
       sodipodi:type="inkscape:persp3d" />
    <inkscape:perspective
       id="perspective2969"
       inkscape:persp3d-origin="0.5 : 0.33333333 : 1"
       inkscape:vp_z="1 : 0.5 : 1"
       inkscape:vp_y="0 : 1000 : 0"
       inkscape:vp_x="0 : 0.5 : 1"
       sodipodi:type="inkscape:persp3d" />
    <inkscape:perspective
       id="perspective4605"
       inkscape:persp3d-origin="0.5 : 0.33333333 : 1"
       inkscape:vp_z="1 : 0.5 : 1"
       inkscape:vp_y="0 : 1000 : 0"
       inkscape:vp_x="0 : 0.5 : 1"
       sodipodi:type="inkscape:persp3d" />
    <clipPath
       clipPathUnits="userSpaceOnUse"
       id="clipPath3971">
      <path
         d="m 350.18896,-269.79883 c 0,0 -36,-36.00049 -36,-36.00049 0,0 36,-35.99951 36,-35.99951 0,0 36,35.99951 36,35.99951 0,0 -36,36.00049 -36,36.00049 z"
         id="path3973" />
    </clipPath>
    <linearGradient
       x1="0"
       y1="0"
       x2="1"
       y2="0"
       gradientUnits="userSpaceOnUse"
       gradientTransform="matrix(0,71.9993,-71.9993,0,350.18896,-341.79834)"
       spreadMethod="pad"
       id="linearGradient3979">
      <stop
         style="stop-opacity:1;stop-color:#73bad1"
         offset="0"
         id="stop3981" />
      <stop
         style="stop-opacity:1;stop-color:#1a8eb4"
         offset="0.78651"
         id="stop3983" />
      <stop
         style="stop-opacity:1;stop-color:#1a8eb4"
         offset="1"
         id="stop3985" />
    </linearGradient>
    <clipPath
       clipPathUnits="userSpaceOnUse"
       id="clipPath3995">
      <path
         d="m 370.0542,-305.79932 c 0,10.97315 -8.89258,19.86377 -19.86524,19.86377 -10.9707,0 -19.86523,-8.89062 -19.86523,-19.86377 0,-10.97168 8.89453,-19.86621 19.86523,-19.86621 10.97266,0 19.86524,8.89453 19.86524,19.86621 z"
         id="path3997" />
    </clipPath>
    <linearGradient
       x1="0"
       y1="0"
       x2="1"
       y2="0"
       gradientUnits="userSpaceOnUse"
       gradientTransform="matrix(0,-41.08427,41.08427,0,350.18896,-285.93555)"
       spreadMethod="pad"
       id="linearGradient4003">
      <stop
         style="stop-opacity:1;stop-color:#80c0d5"
         offset="0"
         id="stop4005" />
      <stop
         style="stop-opacity:1;stop-color:#1a8eb4"
         offset="0.8"
         id="stop4007" />
      <stop
         style="stop-opacity:1;stop-color:#1a8eb4"
         offset="1"
         id="stop4009" />
    </linearGradient>
  </defs>
  <sodipodi:namedview
     id="base"
     pagecolor="#ffffff"
     bordercolor="#666666"
     borderopacity="1.0"
     inkscape:pageopacity="0.0"
     inkscape:pageshadow="2"
     inkscape:zoom="1.77"
     inkscape:cx="308.11607"
     inkscape:cy="18.175498"
     inkscape:document-units="px"
     inkscape:current-layer="layer1"
     showgrid="false"
     inkscape:window-width="1520"
     inkscape:window-height="1131"
     inkscape:window-x="2118"
     inkscape:window-y="17"
     inkscape:window-maximized="0" />
  <metadata
     id="metadata7">
    <rdf:RDF>
      <cc:Work
         rdf:about="">
        <dc:format>image/svg+xml</dc:format>
        <dc:type
           rdf:resource="http://purl.org/dc/dcmitype/StillImage" />
        <dc:title></dc:title>
      </cc:Work>
    </rdf:RDF>
  </metadata>
  <g
     inkscape:label="Calque 1"
     inkscape:groupmode="layer"
     id="layer1"
     transform="translate(0,-922.36218)"
     style="display:inline">
    <g
       id="g3185">
      <g
         transform="matrix(1.0330466,0,0,1.0330466,-0.1135925,-32.163188)"
         id="g3930">
        <path
           inkscape:connector-curvature="0"
           id="path2932"
           style="fill:#5248a1;fill-opacity:1;fill-rule:nonzero;stroke:none"
           d="m 81.083418,1038.9876 c -1.190635,-2.9526 0.238647,-6.3164 3.196257,-7.507 2.953451,-1.1928 6.315307,0.2402 7.505937,3.1942 1.19064,2.9586 -0.2402,6.3224 -3.19378,7.5131 -2.956575,1.1855 -6.317779,-0.2448 -7.508414,-3.2003" />
        <path
           inkscape:connector-curvature="0"
           id="path2934"
           style="fill:#f1511e;fill-opacity:1;fill-rule:nonzero;stroke:none"
           d="m 42.7412,1033.8624 c 1.246528,-2.9322 4.636718,-4.297 7.571451,-3.048 2.928754,1.243 4.297075,4.6347 3.050548,7.5654 -1.251597,2.9337 -4.640747,4.2965 -7.573921,3.05 -2.931224,-1.2501 -4.295515,-4.6377 -3.048078,-7.5674" />
        <path
           inkscape:connector-curvature="0"
           id="path2936"
           style="fill:#7ac326;fill-opacity:1;fill-rule:nonzero;stroke:none"
           d="m 17.225684,1002.4241 c 2.955062,-1.1866 6.319386,0.2376 7.513531,3.1912 1.185565,2.9611 -0.246186,6.3238 -3.201275,7.5119 -2.953542,1.1933 -6.317333,-0.2371 -7.51357,-3.1921 -1.18914,-2.9555 0.243716,-6.3143 3.201314,-7.511" />
        <path
           inkscape:connector-curvature="0"
           id="path2938"
           style="fill:#5248a1;fill-opacity:1;fill-rule:nonzero;stroke:none"
           d="m 21.74764,962.49883 c 2.931653,1.24444 4.299063,4.63567 3.049027,7.5669 -1.245488,2.93473 -4.637251,4.29798 -7.569463,3.04899 -2.932211,-1.249 -4.294488,-4.63321 -3.044932,-7.56691 1.246008,-2.93473 4.631623,-4.30162 7.565368,-3.04898" />
        <path
           inkscape:connector-curvature="0"
           id="path2940"
           style="fill:#f1511e;fill-opacity:1;fill-rule:nonzero;stroke:none"
           d="m 53.176934,937.80537 c 1.190635,2.95098 -0.240206,6.31062 -3.197817,7.50386 -2.95605,1.19375 -6.314785,-0.24073 -7.508539,-3.19574 -1.190635,-2.95501 0.242806,-6.31634 3.196257,-7.50698 2.95761,-1.19219 6.317904,0.24372 7.510099,3.19886" />
        <path
           inkscape:connector-curvature="0"
           id="path2942"
           style="fill:#bf1b2c;fill-opacity:1;fill-rule:nonzero;stroke:none"
           d="m 60.722909,1040.3666 c 0.02951,-3.1851 2.636164,-5.7466 5.823843,-5.7111 3.187028,0.03 5.748583,2.6352 5.716088,5.8253 -0.03198,3.1836 -2.643184,5.7436 -5.823713,5.7106 -3.190148,-0.029 -5.745074,-2.6392 -5.716218,-5.8248" />
        <path
           inkscape:connector-curvature="0"
           id="path2944"
           style="fill:#efb409;fill-opacity:1;fill-rule:nonzero;stroke:none"
           d="m 27.261775,1020.9576 c 2.274685,-2.2335 5.930428,-2.1985 8.1578,0.079 2.2366,2.2747 2.196045,5.9289 -0.07617,8.1604 -2.277154,2.23 -5.929388,2.1959 -8.161959,-0.081 -2.227371,-2.2732 -2.193446,-5.927 0.08033,-8.1585" />
        <path
           inkscape:connector-curvature="0"
           id="path2946"
           style="fill:#4da5db;fill-opacity:1;fill-rule:nonzero;stroke:none"
           d="m 15.718192,982.14638 c 3.185585,0.0325 5.746126,2.63773 5.715659,5.83152 -0.03452,3.18351 -2.64026,5.74104 -5.82786,5.71556 -3.185585,-0.0339 -5.7435844,-2.64786 -5.7156584,-5.82787 0.03554,-3.18963 2.6387384,-5.75014 5.8278594,-5.71921" />
        <path
           inkscape:connector-curvature="0"
           id="path2948"
           style="fill:#bf1b2c;fill-opacity:1;fill-rule:nonzero;stroke:none"
           d="m 35.178458,946.98886 c 2.228931,2.27624 2.193446,5.93198 -0.08124,8.16195 -2.276244,2.23154 -5.931988,2.19189 -8.159489,-0.0812 -2.232441,-2.27222 -2.198515,-5.9238 0.07617,-8.15442 2.277285,-2.23245 5.927959,-2.19943 8.164559,0.0737" />
        <path
           inkscape:connector-curvature="0"
           id="path2950"
           style="fill:#efb409;fill-opacity:1;fill-rule:nonzero;stroke:none"
           d="m 73.661186,936.20191 c -0.0299,3.18859 -2.632655,5.74247 -5.823323,5.71453 -3.187548,-0.0289 -5.749103,-2.64124 -5.719598,-5.83138 0.03393,-3.17689 2.643704,-5.74001 5.831382,-5.71206 3.186119,0.037 5.746114,2.64279 5.711539,5.82891" />
        <path
           inkscape:connector-curvature="0"
           id="path2952"
           style="fill:#7ac326;fill-opacity:1;fill-rule:nonzero;stroke:none"
           d="m 92.499992,942.43949 c -1.24808,2.93317 -4.63567,4.29551 -7.566378,3.04742 -2.933693,-1.24743 -4.301104,-4.63515 -3.054057,-7.56885 1.250037,-2.93226 4.639188,-4.29304 7.573015,-3.04899 2.93317,1.2516 4.29642,4.64231 3.04742,7.57042" />
        <path
           inkscape:connector-curvature="0"
           id="path2954"
           style="fill:#4da5db;fill-opacity:1;fill-rule:nonzero;stroke:none"
           d="m 107.68658,955.46199 c -2.27832,2.23153 -5.93199,2.19553 -8.161963,-0.0827 -2.23309,-2.26714 -2.19605,-5.92185 0.0762,-8.15949 2.276243,-2.23153 5.929393,-2.19084 8.164433,0.0802 2.22906,2.2808 2.19604,5.93407 -0.0786,8.16196" />
        <path
           inkscape:connector-curvature="0"
           id="path2956"
           style="fill:#7ac326;fill-opacity:1;fill-rule:nonzero;stroke:none"
           d="m 97.764267,1028.8612 c -1.19063,-2.9541 0.23865,-6.3138 3.192103,-7.5025 2.95761,-1.1927 6.31492,0.2402 7.50958,3.1968 1.19064,2.9561 -0.23865,6.3164 -3.19275,7.5121 -2.96112,1.1804 -6.322323,-0.2453 -7.508933,-3.2064" />
        <path
           inkscape:connector-curvature="0"
           id="path2958"
           style="fill:#211d1d;fill-opacity:1;fill-rule:nonzero;stroke:none"
           d="m 53.388155,1012.6119 -11.000246,-46.34009 11.206787,0 3.506005,19.04548 c 1.032187,5.56986 1.992884,11.55061 2.750938,16.29541 l 0.137131,0 c 0.756496,-5.0895 1.856793,-10.65692 3.024551,-16.43306 l 3.918827,-18.90783 11.137247,0 3.712676,19.52629 c 1.032187,5.43286 1.788812,10.3818 2.475247,15.5395 l 0.137131,0 c 0.687865,-5.1577 1.720182,-10.58901 2.682308,-16.15796 l 3.781175,-18.90783 10.657488,0 -11.962378,46.34009 -11.346516,0 -3.918697,-19.93749 c -0.892196,-4.6752 -1.647651,-9.00724 -2.199555,-14.30101 l -0.138691,0 c -0.823566,5.22462 -1.579021,9.62581 -2.679319,14.30101 l -4.40106,19.93749 -11.481049,0" />
        <path
           inkscape:connector-curvature="0"
           id="path2960"
           style="fill:#211d1d;fill-opacity:1;fill-rule:nonzero;stroke:none"
           d="m 106.24755,1012.6119 10.45085,0 0,-33.62005 -10.45085,0 0,33.62005 z" />
        <path
           inkscape:connector-curvature="0"
           id="path2962"
           style="fill:#211d1d;fill-opacity:1;fill-rule:nonzero;stroke:none"
           d="m 134.72686,993.22384 0.13713,0 c 0.7565,-1.44306 1.58162,-2.81801 2.40662,-4.05531 l 6.80664,-10.17668 12.58225,0 -12.03243,13.61353 13.7521,20.00652 -12.85782,0 -8.18211,-13.8181 -2.61238,3.3679 0,10.4502 -10.45029,0 0,-48.81429 10.45029,0 0,29.42623" />
        <path
           inkscape:connector-curvature="0"
           id="path2964"
           style="fill:#211d1d;fill-opacity:1;fill-rule:nonzero;stroke:none"
           d="m 162.21103,1012.6119 10.44933,0 0,-33.62005 -10.44933,0 0,33.62005 z" />
        <path
           inkscape:connector-curvature="0"
           id="path2966"
           style="fill:#7a7d80;fill-opacity:1;fill-rule:nonzero;stroke:none"
           d="m 181.73433,1001.886 c 2.75302,1.446 7.15161,2.8879 11.62039,2.8879 4.81193,0 7.35568,-1.9943 7.35568,-5.0865 0,-2.8195 -2.19929,-4.53775 -7.76772,-6.46356 -7.70014,-2.74938 -12.78763,-7.01292 -12.78763,-13.81917 0,-7.90615 6.66937,-13.88831 17.53067,-13.88831 5.29417,0 9.07534,1.03076 11.82576,2.33811 l -2.33708,8.38696 c -1.78855,-0.89271 -5.15768,-2.20007 -9.62516,-2.20007 -4.53897,0 -6.73827,2.13144 -6.73827,4.46969 0,2.95605 2.54375,4.2625 8.59441,6.60061 8.18107,3.02455 11.96224,7.28705 11.96224,13.88784 0,7.7683 -5.91158,14.3679 -18.63291,14.3679 -5.29287,0 -10.51945,-1.4425 -13.13208,-2.8864 l 2.1317,-8.595" />
        <path
           inkscape:connector-curvature="0"
           id="path2968"
           style="fill:#7a7d80;fill-opacity:1;fill-rule:nonzero;stroke:none"
           d="m 224.29043,978.99185 5.01861,16.50155 c 0.55112,1.9945 1.23743,4.4682 1.65077,6.257 l 0.20667,0 c 0.48093,-1.7888 1.02946,-4.3326 1.51169,-6.257 l 4.12563,-16.50155 11.20575,0 -7.83662,22.13855 c -4.81323,13.3382 -8.04588,18.6305 -11.82576,22.0019 -3.5758,3.1607 -7.42587,4.3295 -10.1061,4.6052 l -2.20189,-8.8007 c 1.30632,-0.2736 2.95709,-0.8936 4.53767,-1.7873 1.58188,-0.8245 3.36913,-2.5432 4.3323,-4.1933 0.34315,-0.55 0.54982,-1.0313 0.54982,-1.5147 0,-0.3417 -0.0689,-0.8925 -0.41204,-1.7161 l -12.37689,-30.73355 11.62039,0" />
        <path
           inkscape:connector-curvature="0"
           id="path2970"
           style="fill:#7a7d80;fill-opacity:1;fill-rule:nonzero;stroke:none"
           d="m 252.05979,989.71783 c 0,-4.19386 -0.13649,-7.70143 -0.27557,-10.72598 l 8.86867,0 0.41335,4.60617 0.20537,0 c 1.4441,-2.19955 4.46748,-5.36266 10.17629,-5.36266 4.39989,0 7.77032,2.26948 9.21182,5.77549 l 0.13778,0 c 1.30632,-1.78726 2.75042,-3.16325 4.39989,-4.12381 1.85745,-1.03232 3.92026,-1.65168 6.39512,-1.65168 6.4627,0 11.34483,4.53819 11.34483,14.57566 l 0,19.80088 -10.17629,0 0,-18.2203 c 0,-4.88031 -1.58058,-7.69832 -4.95102,-7.69832 -2.47356,0 -4.12563,1.64961 -4.88082,3.64249 -0.20667,0.75701 -0.34445,1.78725 -0.34445,2.61394 l 0,19.66219 -10.17369,0 0,-18.8372 c 0,-4.19387 -1.51299,-7.08142 -4.88343,-7.08142 -2.68023,0 -4.26211,2.06243 -4.87952,3.71255 -0.34315,0.82513 -0.41204,1.78621 -0.41204,2.68088 l 0,19.52519 -10.17629,0 0,-22.89407" />
        <path
           inkscape:connector-curvature="0"
           id="path2972"
           style="fill:#5248a1;fill-opacity:1;fill-rule:nonzero;stroke:none"
           d="m 115.54841,973.72654 c -2.28482,2.24323 -5.95577,2.20865 -8.19744,-0.0786 -2.24323,-2.28235 -2.20775,-5.95486 0.0772,-8.19861 2.28378,-2.24323 5.95577,-2.20099 8.199,0.0788 2.24271,2.28937 2.20605,5.95928 -0.0788,8.19848" />
        <path
           inkscape:connector-curvature="0"
           id="path2974"
           style="fill:#211d1d;fill-opacity:1;fill-rule:nonzero;stroke:none"
           d="m 171.27208,973.72654 c -2.28638,2.24323 -5.95578,2.20865 -8.19926,-0.0786 -2.24219,-2.28235 -2.2071,-5.95486 0.0793,-8.19861 2.28379,-2.24323 5.95578,-2.20099 8.19667,0.0788 2.24349,2.28937 2.20839,5.95928 -0.0767,8.19848" />
      </g>
      <g
         transform="translate(0.4601066,-6)"
         id="g3179">
        <path
           inkscape:connector-curvature="0"
           id="path3167"
           style="font-size:34.75129318px;font-style:normal;font-variant:normal;font-weight:bold;font-stretch:normal;text-align:start;line-height:125%;letter-spacing:0px;word-spacing:0px;writing-mode:lr-tb;text-anchor:start;fill:#914d28;fill-opacity:1;stroke:none;font-family:Motor Oil 1937 M54;-inkscape-font-specification:Motor Oil 1937 M54 Bold"
           d="m 262.76816,1049.9612 -18.34284,0 0.9672,-1.1539 8.99325,-10.7749 c 0.58823,-0.724 1.05769,-1.3405 1.40838,-1.8496 0.3846,-0.5543 0.707,-1.0803 0.9672,-1.578 0.20361,-0.4073 0.37895,-0.8484 0.52602,-1.3236 0.11311,-0.3846 0.16967,-0.7635 0.16968,-1.1368 -10e-6,-0.9842 -0.28282,-1.7534 -0.84842,-2.3077 -0.29413,-0.2715 -0.6335,-0.4751 -1.0181,-0.6109 -0.39594,-0.147 -0.8654,-0.2206 -1.40838,-0.2206 -0.48644,0 -0.90499,0.074 -1.25566,0.2206 -0.362,0.1358 -0.6844,0.3394 -0.9672,0.6109 -0.30544,0.2828 -0.53168,0.6052 -0.67874,0.9672 -0.16969,0.3846 -0.27715,0.8145 -0.32239,1.2896 l -0.0509,0.6448 -5.10749,0 0,-0.6958 c 0,-1.199 0.19796,-2.2624 0.59389,-3.19 0.41855,-0.9842 1.02376,-1.8213 1.81562,-2.5113 0.78054,-0.6901 1.70815,-1.2217 2.78282,-1.5951 1.05203,-0.3393 2.22285,-0.509 3.51246,-0.509 1.25565,0 2.36991,0.1584 3.34278,0.4751 0.96152,0.3168 1.84388,0.8145 2.64707,1.4932 0.74659,0.6788 1.30655,1.4706 1.67987,2.3756 0.37329,0.905 0.55994,1.9174 0.55996,3.0373 -2e-5,0.7919 -0.10183,1.5838 -0.30543,2.3756 -0.20364,0.7579 -0.51473,1.5498 -0.93327,2.3756 -0.39594,0.7579 -1.01812,1.7138 -1.86652,2.8676 -0.93893,1.2331 -1.98532,2.5001 -3.13915,3.801 l -2.05318,2.3925 8.33148,0 0,4.5306" />
        <path
           inkscape:connector-curvature="0"
           id="path3169"
           style="font-size:34.75129318px;font-style:normal;font-variant:normal;font-weight:bold;font-stretch:normal;text-align:start;line-height:125%;letter-spacing:0px;word-spacing:0px;writing-mode:lr-tb;text-anchor:start;fill:#914d28;fill-opacity:1;stroke:none;font-family:Motor Oil 1937 M54;-inkscape-font-specification:Motor Oil 1937 M54 Bold"
           d="m 275.1042,1045.8209 c 0.66741,0 1.24433,-0.1584 1.73077,-0.4751 0.49773,-0.3055 0.91628,-0.7862 1.25566,-1.4423 0.35067,-0.6561 0.63348,-1.5442 0.84842,-2.6641 0.1923,-1.1312 0.28845,-2.4208 0.28847,-3.8688 -2e-5,-1.414 -0.0962,-2.681 -0.28847,-3.8009 -0.19232,-1.052 -0.46947,-1.94 -0.83145,-2.664 -0.35069,-0.6674 -0.76359,-1.1539 -1.23869,-1.4593 -0.4525,-0.3167 -0.98984,-0.4751 -1.612,-0.4751 -0.67875,0 -1.25567,0.1584 -1.73078,0.4751 -0.50906,0.3394 -0.93327,0.8258 -1.27263,1.4593 l 0,0.017 c -0.38462,0.758 -0.66177,1.6403 -0.83145,2.6471 -0.19231,1.1426 -0.28847,2.4265 -0.28846,3.8518 -1e-5,1.3688 0.0905,2.6188 0.27149,3.75 0.1923,1.0408 0.47511,1.9345 0.84842,2.6811 0.35068,0.6787 0.76357,1.1764 1.2387,1.4932 0.44117,0.3167 0.9785,0.4751 1.612,0.4751 m 9.43443,-8.1618 c -2e-5,2.0136 -0.19799,3.7783 -0.5939,5.2941 -0.40726,1.5724 -1.02378,2.9412 -1.84955,4.1064 -0.83713,1.1765 -1.83261,2.0588 -2.98644,2.6471 -1.19912,0.5882 -2.51134,0.8823 -3.93667,0.8823 -1.45929,0 -2.78283,-0.2941 -3.97061,-0.8823 -1.13123,-0.5657 -2.12671,-1.4593 -2.98644,-2.6811 -0.8258,-1.1764 -1.431,-2.5735 -1.81562,-4.1911 -0.39593,-1.6177 -0.59389,-3.4333 -0.59389,-5.4469 0,-2.0136 0.20362,-3.8122 0.61086,-5.396 0.38462,-1.6063 0.99548,-2.9977 1.83259,-4.1742 0.8371,-1.1878 1.83824,-2.0814 3.00341,-2.681 1.14253,-0.5995 2.46606,-0.8993 3.9706,-0.8993 1.50452,0 2.83371,0.2998 3.98758,0.8993 1.16515,0.6222 2.15497,1.5215 2.96947,2.698 0.79184,1.1765 1.38573,2.5905 1.78168,4.2421 0.3846,1.595 0.57691,3.4559 0.57693,5.5826" />
        <path
           inkscape:connector-curvature="0"
           id="path3171"
           style="font-size:34.75129318px;font-style:normal;font-variant:normal;font-weight:bold;font-stretch:normal;text-align:start;line-height:125%;letter-spacing:0px;word-spacing:0px;writing-mode:lr-tb;text-anchor:start;fill:#914d28;fill-opacity:1;stroke:none;font-family:Motor Oil 1937 M54;-inkscape-font-specification:Motor Oil 1937 M54 Bold"
           d="m 292.67892,1049.9612 0,-20.7524 -4.71495,0 1.06901,-4.7342 8.61768,0 0,25.4866 -4.97174,0"
           sodipodi:nodetypes="ccccccc" />
        <path
           inkscape:connector-curvature="0"
           id="path3173"
           style="font-size:34.75129318px;font-style:normal;font-variant:normal;font-weight:bold;font-stretch:normal;text-align:start;line-height:125%;letter-spacing:0px;word-spacing:0px;writing-mode:lr-tb;text-anchor:start;fill:#914d28;fill-opacity:1;stroke:none;font-family:Motor Oil 1937 M54;-inkscape-font-specification:Motor Oil 1937 M54 Bold"
           d="m 307.40295,1049.9612 0,-20.7524 -4.71494,0 1.06901,-4.7342 8.61767,0 0,25.4866 -4.97174,0"
           sodipodi:nodetypes="ccccccc" />
      </g>
    </g>
  </g>
</svg>
